<svg width="36" height="36" viewBox="0 0 36 36" fill="none" xmlns="http://www.w3.org/2000/svg">
<path d="M32.1385 27.2804C32.1385 27.8054 32.0219 28.345 31.774 28.87C31.526 29.395 31.2052 29.8908 30.7823 30.3575C30.0677 31.145 29.2802 31.7137 28.3906 32.0783C27.5156 32.4429 26.5677 32.6325 25.5469 32.6325C24.0594 32.6325 22.4698 32.2825 20.7927 31.5679C19.1156 30.8533 17.4385 29.8908 15.776 28.6804C14.099 27.4554 12.5094 26.0992 10.9927 24.5971C9.49062 23.0804 8.13437 21.4908 6.92396 19.8283C5.72812 18.1658 4.76562 16.5033 4.06562 14.8554C3.36563 13.1929 3.01562 11.6033 3.01562 10.0867C3.01562 9.09499 3.19062 8.14707 3.54062 7.27207C3.89062 6.38249 4.44479 5.56582 5.21771 4.83665C6.15104 3.9179 7.17187 3.46582 8.25104 3.46582C8.65937 3.46582 9.06771 3.55332 9.43229 3.72832C9.81146 3.90332 10.1469 4.16582 10.4094 4.54499L13.7927 9.31374C14.0552 9.67832 14.2448 10.0137 14.376 10.3346C14.5073 10.6408 14.5802 10.9471 14.5802 11.2242C14.5802 11.5742 14.4781 11.9242 14.274 12.2596C14.0844 12.595 13.8073 12.945 13.4573 13.295L12.349 14.4471C12.1885 14.6075 12.1156 14.7971 12.1156 15.0304C12.1156 15.1471 12.1302 15.2492 12.1594 15.3658C12.2031 15.4825 12.2469 15.57 12.276 15.6575C12.5385 16.1387 12.9906 16.7658 13.6323 17.5242C14.2885 18.2825 14.9885 19.0554 15.7469 19.8283C16.5344 20.6012 17.2927 21.3158 18.0656 21.9721C18.824 22.6137 19.451 23.0512 19.9469 23.3137C20.0198 23.3429 20.1073 23.3867 20.2094 23.4304C20.326 23.4742 20.4427 23.4887 20.574 23.4887C20.8219 23.4887 21.0115 23.4012 21.1719 23.2408L22.2802 22.1471C22.6448 21.7825 22.9948 21.5054 23.3302 21.3304C23.6656 21.1262 24.001 21.0242 24.3656 21.0242C24.6427 21.0242 24.9344 21.0825 25.2552 21.2137C25.576 21.345 25.9115 21.5346 26.276 21.7825L31.1031 25.2096C31.4823 25.4721 31.7448 25.7783 31.9052 26.1429C32.051 26.5075 32.1385 26.8721 32.1385 27.2804Z" stroke="#292D32" stroke-width="1.5" stroke-miterlimit="10"/>
</svg>
