<svg width="23" height="23" viewBox="0 0 23 23" fill="none" xmlns="http://www.w3.org/2000/svg">
<path d="M19.5111 3.40248C17.6388 1.509 15.1513 0.347296 12.4976 0.127107C9.84385 -0.0930813 7.19885 0.642756 5.0401 2.20177C2.88136 3.76078 1.35113 6.04023 0.725696 8.62858C0.100261 11.2169 0.420834 13.9436 1.62954 16.3163L0.445325 22.0656C0.432645 22.1231 0.432154 22.1825 0.443882 22.2401C0.455611 22.2978 0.4793 22.3523 0.513417 22.4002C0.562275 22.4727 0.632115 22.5286 0.713592 22.5603C0.795069 22.5921 0.884297 22.5982 0.969338 22.5778L6.59434 21.2426C8.96054 22.4196 11.6676 22.7188 14.2338 22.087C16.7999 21.4551 19.0585 19.9331 20.6077 17.792C22.1569 15.6509 22.896 13.0296 22.6936 10.3945C22.4911 7.75953 21.3603 5.28184 19.5022 3.40248H19.5111ZM17.7526 17.4265C16.4577 18.7191 14.7903 19.5733 12.9847 19.8691C11.1792 20.1649 9.32639 19.8873 7.68677 19.0755L6.89927 18.6847L3.44434 19.5018V19.4574L4.17263 15.9729L3.78776 15.215C2.9494 13.5709 2.65339 11.7035 2.9422 9.88079C3.23101 8.05804 4.08979 6.37363 5.39533 5.06926C7.03459 3.4317 9.25688 2.51187 11.5739 2.51187C13.891 2.51187 16.1133 3.4317 17.7526 5.06926L17.791 5.12255C19.409 6.76531 20.3122 8.9809 20.3039 11.2866C20.2956 13.5924 19.3764 15.8014 17.7466 17.4324L17.7526 17.4265Z" fill="white"/>
<path d="M17.4476 14.8918C17.0242 15.5579 16.3522 16.3721 15.5144 16.5764C14.0341 16.9316 11.7811 16.5764 8.95975 13.9681L8.92422 13.9356C6.46995 11.6441 5.81863 9.73459 5.9637 8.22176C6.04955 7.36025 6.766 6.58459 7.36995 6.07538C7.46597 5.99441 7.5796 5.93703 7.70176 5.90782C7.82391 5.87861 7.95121 5.87838 8.07347 5.90715C8.19573 5.93592 8.30957 5.99288 8.40589 6.0735C8.5022 6.15412 8.57833 6.25614 8.62817 6.37143L9.53705 8.42604C9.59639 8.55829 9.61864 8.7042 9.60143 8.84813C9.58422 8.99206 9.5282 9.1286 9.43936 9.24314L8.97751 9.83525C8.88152 9.95816 8.82433 10.1069 8.81326 10.2624C8.80219 10.418 8.83773 10.5733 8.91534 10.7086C9.35404 11.3552 9.87895 11.9389 10.4755 12.4435C11.1174 13.0612 11.8454 13.5827 12.6367 13.9918C12.7812 14.05 12.9396 14.0639 13.092 14.0318C13.2444 13.9996 13.3837 13.9228 13.4923 13.8112L14.0222 13.2724C14.1231 13.164 14.252 13.0856 14.3946 13.0459C14.5373 13.0061 14.6881 13.0067 14.8305 13.0474L16.9917 13.6662C17.1141 13.701 17.2267 13.7642 17.3202 13.8506C17.4137 13.937 17.4855 14.0442 17.5299 14.1636C17.5743 14.2829 17.59 14.411 17.5757 14.5375C17.5614 14.664 17.5175 14.7854 17.4476 14.8918Z" fill="white"/>
</svg>
