<svg width="21" height="15" viewBox="0 0 21 15" fill="none" xmlns="http://www.w3.org/2000/svg">
<path d="M20.1851 2.79518C19.7851 1.55307 18.4614 0.81886 17.2325 0.647808C12.8518 0.182013 8.43416 0.182013 4.05353 0.647808C2.83511 0.81886 1.51142 1.5636 1.11142 2.79518C0.487761 5.97276 0.487761 9.24128 1.11142 12.4189C1.52195 13.6583 2.84563 14.3952 4.07458 14.5662C8.45536 15.0294 12.8728 15.0294 17.2535 14.5662C18.472 14.3952 19.7956 13.6478 20.1956 12.4189C20.8158 9.2406 20.8122 5.97208 20.1851 2.79518ZM8.26143 11.4373V3.77412L14.5009 7.6057C12.3983 8.89781 10.3562 10.1557 8.26143 11.4373Z" fill="white"/>
</svg>
