<svg width="36" height="36" viewBox="0 0 36 36" fill="none" xmlns="http://www.w3.org/2000/svg">
<path d="M3.11779 7.05293C4.28446 2.0071 11.8824 2.0071 13.0345 7.05293C13.7199 10.0133 11.8386 12.5217 10.2053 14.0821C9.00946 15.2196 7.12821 15.205 5.93237 14.0821C4.31362 12.5217 2.43237 10.0133 3.11779 7.05293Z" stroke="#292D32" stroke-width="1.5"/>
<path d="M22.0761 24.5529C23.2427 19.5071 30.8844 19.5071 32.0511 24.5529C32.7365 27.5133 30.8552 30.0217 29.2073 31.5821C28.0115 32.7196 26.1157 32.705 24.9198 31.5821C23.2719 30.0217 21.3907 27.5133 22.0761 24.5529Z" stroke="#292D32" stroke-width="1.5"/>
<path d="M17.599 7.63672H21.5073C24.2052 7.63672 25.4594 10.9763 23.4323 12.7555L11.7802 22.9492C9.75314 24.7138 11.0073 28.0534 13.6906 28.0534H17.599" stroke="#292D32" stroke-width="1.5" stroke-linecap="round" stroke-linejoin="round"/>
<path d="M8.09979 8.36589H8.11664" stroke="#292D32" stroke-width="2" stroke-linecap="round" stroke-linejoin="round"/>
<path d="M27.058 25.8659H27.0749" stroke="#292D32" stroke-width="2" stroke-linecap="round" stroke-linejoin="round"/>
</svg>
