<svg width="21" height="20" viewBox="0 0 21 20" fill="none" xmlns="http://www.w3.org/2000/svg">
<path d="M20.6378 7.72938C20.522 5.68991 19.4378 3.85044 17.7431 2.4978C15.9299 1.04517 13.422 0.145172 10.6378 0.145172C5.1115 0.145172 0.637817 3.7057 0.637817 8.0978C0.653607 10.9504 2.54571 13.4557 5.39045 14.8689C6.62899 15.4751 7.9657 15.8556 9.33782 15.9925C9.48186 16.0084 9.61373 16.0808 9.7045 16.1938C9.79527 16.3067 9.83753 16.4511 9.82203 16.5952L9.6115 18.4741C9.60018 18.5721 9.61567 18.6713 9.65631 18.7611C9.69695 18.851 9.76122 18.9281 9.84226 18.9843C9.9233 19.0405 10.0181 19.0736 10.1165 19.0802C10.2149 19.0867 10.3132 19.0664 10.401 19.0215C14.5405 17.0241 17.0168 14.9689 18.4957 13.1899C18.7589 12.8662 19.6404 11.6373 19.8115 11.3136C20.1917 10.6336 20.4508 9.8928 20.5773 9.12412C20.6145 8.92402 20.6399 8.72192 20.6536 8.51886C20.663 8.25561 20.6577 7.99205 20.6378 7.72938ZM7.53782 10.732H5.49308C5.35349 10.732 5.21962 10.6766 5.12092 10.5779C5.02222 10.4792 4.96676 10.3453 4.96676 10.2057V6.35833C4.97605 6.22892 5.03401 6.10784 5.12897 6.01944C5.22394 5.93104 5.34887 5.8819 5.47861 5.8819C5.60835 5.8819 5.73327 5.93104 5.82824 6.01944C5.92321 6.10784 5.98116 6.22892 5.99045 6.35833V9.70833H7.52466C7.59168 9.70831 7.65804 9.72156 7.71991 9.7473C7.78179 9.77304 7.83796 9.81078 7.88519 9.85833C7.9331 9.90529 7.97107 9.96141 7.99684 10.0233C8.02261 10.0853 8.03565 10.1518 8.03519 10.2189C8.03592 10.3525 7.98425 10.481 7.89126 10.577C7.79827 10.6729 7.67138 10.7286 7.53782 10.732ZM9.55624 10.332C9.55624 10.4381 9.5141 10.5398 9.43908 10.6149C9.36407 10.6899 9.26233 10.732 9.15624 10.732H8.93255C8.82647 10.732 8.72473 10.6899 8.64971 10.6149C8.5747 10.5398 8.53256 10.4381 8.53256 10.332V6.24781C8.53256 6.14172 8.5747 6.03998 8.64971 5.96496C8.72473 5.88995 8.82647 5.84781 8.93255 5.84781H9.15624C9.26233 5.84781 9.36407 5.88995 9.43908 5.96496C9.5141 6.03998 9.55624 6.14172 9.55624 6.24781V10.332ZM14.3115 10.2004C14.3115 10.34 14.2561 10.4739 14.1573 10.5726C14.0586 10.6713 13.9248 10.7268 13.7852 10.7268C13.6552 10.7268 13.5304 10.6758 13.4378 10.5846C13.4194 10.5846 12.7326 9.67939 12.1483 8.92412L11.3326 7.87149V10.2136C11.335 10.282 11.3237 10.3503 11.2991 10.4142C11.2745 10.4782 11.2372 10.5365 11.1896 10.5856C11.1419 10.6348 11.0847 10.6738 11.0216 10.7003C10.9584 10.7269 10.8905 10.7403 10.822 10.7399C10.6947 10.7384 10.5722 10.6907 10.4773 10.6057C10.424 10.558 10.3814 10.4996 10.3524 10.4343C10.3234 10.369 10.3085 10.2982 10.3089 10.2268V6.37938C10.3086 6.2451 10.3597 6.1158 10.4517 6.01796C10.5437 5.92011 10.6696 5.86112 10.8036 5.85307C10.879 5.85068 10.9539 5.86502 11.0231 5.89505C11.0922 5.92508 11.1539 5.97006 11.2036 6.02675C11.2247 6.05044 12.2826 7.42675 12.8773 8.20307C13.1141 8.50833 13.2773 8.72938 13.2773 8.72938V6.36096C13.2773 6.22556 13.3311 6.09571 13.4268 5.99997C13.5226 5.90422 13.6524 5.85044 13.7878 5.85044C13.9232 5.85044 14.0531 5.90422 14.1488 5.99997C14.2446 6.09571 14.2983 6.22556 14.2983 6.36096L14.3115 10.2004ZM17.6352 7.77938C17.7036 7.7769 17.7719 7.78829 17.8358 7.81286C17.8998 7.83743 17.9581 7.87469 18.0072 7.92238C18.0564 7.97008 18.0954 8.02722 18.1219 8.09038C18.1484 8.15354 18.1619 8.22141 18.1615 8.28991C18.1615 8.3583 18.1478 8.42601 18.1212 8.489C18.0945 8.55199 18.0555 8.60899 18.0064 8.6566C17.9573 8.70422 17.8992 8.7415 17.8354 8.7662C17.7716 8.79091 17.7035 8.80255 17.6352 8.80044H16.1036V9.70833H17.6352C17.7711 9.70958 17.9012 9.76333 17.9983 9.85833C18.0706 9.92974 18.12 10.0211 18.14 10.1207C18.1601 10.2203 18.15 10.3236 18.111 10.4175C18.072 10.5113 18.0059 10.5913 17.9211 10.6474C17.8363 10.7034 17.7368 10.7329 17.6352 10.732H15.5905C15.5221 10.732 15.4544 10.7183 15.3914 10.6917C15.3284 10.6651 15.2714 10.626 15.2238 10.5769C15.1761 10.5279 15.1389 10.4697 15.1142 10.4059C15.0894 10.3421 15.0778 10.2741 15.0799 10.2057V6.35833C15.0839 6.22419 15.139 6.09662 15.2338 6.00173C15.3287 5.90683 15.4563 5.85177 15.5905 5.84781H17.6352C17.7055 5.84276 17.7761 5.85225 17.8425 5.87569C17.909 5.89913 17.9699 5.93601 18.0215 5.98403C18.0731 6.03205 18.1143 6.09019 18.1424 6.15481C18.1705 6.21944 18.1851 6.28916 18.1851 6.35965C18.1851 6.43013 18.1705 6.49986 18.1424 6.56448C18.1143 6.62911 18.0731 6.68724 18.0215 6.73526C17.9699 6.78329 17.909 6.82017 17.8425 6.8436C17.7761 6.86704 17.7055 6.87653 17.6352 6.87149H16.1036V7.77938H17.6352Z" fill="white"/>
</svg>
