<svg width="21" height="21" viewBox="0 0 21 21" fill="none" xmlns="http://www.w3.org/2000/svg">
<path d="M14.6957 0.605713H6.61146C5.03197 0.607802 3.51777 1.23618 2.4009 2.35305C1.28403 3.46992 0.655653 4.98412 0.653564 6.56361V14.6478C0.655653 16.2273 1.28403 17.7415 2.4009 18.8584C3.51777 19.9752 5.03197 20.6036 6.61146 20.6057H14.6957C16.2754 20.6043 17.79 19.9762 18.907 18.8591C20.024 17.7421 20.6522 16.2275 20.6536 14.6478V6.56361C20.6515 4.98412 20.0231 3.46992 18.9062 2.35305C17.7894 1.23618 16.2752 0.607802 14.6957 0.605713ZM18.643 14.6478C18.643 15.6947 18.2272 16.6988 17.4869 17.439C16.7466 18.1793 15.7426 18.5952 14.6957 18.5952H6.61146C5.56455 18.5952 4.56052 18.1793 3.82025 17.439C3.07997 16.6988 2.66409 15.6947 2.66409 14.6478V6.56361C2.66409 5.5167 3.07997 4.51267 3.82025 3.7724C4.56052 3.03212 5.56455 2.61624 6.61146 2.61624H14.6957C15.7426 2.61624 16.7466 3.03212 17.4869 3.7724C18.2272 4.51267 18.643 5.5167 18.643 6.56361V14.6478Z" fill="white"/>
<path d="M10.6536 5.43466C9.63013 5.43414 8.62949 5.7372 7.77828 6.30549C6.92707 6.87378 6.26353 7.68177 5.87162 8.62725C5.47971 9.57272 5.37704 10.6132 5.57658 11.617C5.77612 12.6209 6.26892 13.543 6.99263 14.2667C7.71635 14.9904 8.63845 15.4832 9.64229 15.6827C10.6461 15.8823 11.6866 15.7796 12.6321 15.3877C13.5776 14.9958 14.3855 14.3323 14.9538 13.481C15.5221 12.6298 15.8252 11.6292 15.8247 10.6057C15.8233 9.23469 15.278 7.92023 14.3086 6.95077C13.3391 5.98131 12.0246 5.43606 10.6536 5.43466ZM10.6536 13.7636C10.029 13.7636 9.41849 13.5784 8.89918 13.2314C8.37987 12.8844 7.97511 12.3912 7.7361 11.8142C7.49708 11.2372 7.43455 10.6022 7.5564 9.98964C7.67824 9.37707 7.979 8.81439 8.42064 8.37275C8.86228 7.93111 9.42497 7.63035 10.0375 7.5085C10.6501 7.38665 11.2851 7.44919 11.8621 7.6882C12.4391 7.92721 12.9323 8.33197 13.2793 8.85128C13.6263 9.3706 13.8115 9.98114 13.8115 10.6057C13.8115 11.4432 13.4788 12.2465 12.8866 12.8387C12.2944 13.4309 11.4911 13.7636 10.6536 13.7636Z" fill="white"/>
<path d="M15.8562 6.7136C16.5626 6.7136 17.1352 6.14099 17.1352 5.43465C17.1352 4.7283 16.5626 4.1557 15.8562 4.1557C15.1499 4.1557 14.5773 4.7283 14.5773 5.43465C14.5773 6.14099 15.1499 6.7136 15.8562 6.7136Z" fill="white"/>
</svg>
