<svg width="23" height="20" viewBox="0 0 23 20" fill="none" xmlns="http://www.w3.org/2000/svg">
<path d="M19.4905 8.09291C13.5073 5.04949 6.70692 10.636 9.81844 15.7607C11.2602 18.1676 14.5938 19.6863 18.5342 18.5465C19.3247 18.8426 20.0145 19.3488 20.7901 19.7307C20.5948 19.0676 20.3816 18.4103 20.1566 17.7561C24.2332 14.8518 23.3392 10.0587 19.4905 8.10771V8.09291ZM14.7151 11.5478C14.662 11.6937 14.5729 11.8238 14.4561 11.9262C14.3393 12.0285 14.1986 12.0997 14.047 12.1333C13.8954 12.1668 13.7378 12.1616 13.5887 12.1182C13.4397 12.0747 13.304 11.9944 13.1942 11.8846C13.0844 11.7748 13.0041 11.6391 12.9606 11.49C12.9171 11.341 12.9119 11.1834 12.9455 11.0318C12.9791 10.8802 13.0503 10.7395 13.1526 10.6227C13.255 10.5059 13.3851 10.4168 13.5309 10.3636C13.6961 10.3059 13.8741 10.296 14.0446 10.335C14.2152 10.3739 14.3712 10.4602 14.4949 10.5839C14.6186 10.7076 14.7049 10.8636 14.7438 11.0341C14.7828 11.2047 14.7728 11.3827 14.7151 11.5478ZM19.1915 11.6337C19.1251 11.7635 19.0294 11.876 18.912 11.9623C18.7946 12.0487 18.6587 12.1065 18.515 12.1312C18.3714 12.1559 18.2239 12.1469 18.0844 12.1047C17.9449 12.0625 17.8171 11.9884 17.7112 11.8883C17.5439 11.6925 17.4324 11.4552 17.3885 11.2015C17.4862 10.7692 17.7823 10.3133 18.2767 10.3133C18.4385 10.3039 18.6001 10.3364 18.7457 10.4078C18.8913 10.4791 19.016 10.5869 19.1077 10.7206C19.1994 10.8543 19.2551 11.0095 19.2692 11.171C19.2834 11.3325 19.2556 11.495 19.1885 11.6426L19.1915 11.6337Z" fill="white"/>
<path d="M16.6483 6.83799C16.4189 5.84576 15.9794 4.91427 15.3594 4.10634C14.7394 3.2984 13.9533 2.63281 13.0543 2.15444H13.0809C6.80459 -1.39819 -1.00824 3.55477 0.501629 9.387C0.916102 11.1189 2.11512 12.5696 3.58058 13.5377C3.29834 14.3271 3.03091 15.1275 2.77827 15.9387C3.69308 15.459 4.60492 14.9587 5.51972 14.4584C6.62157 14.8192 7.77713 14.9884 8.93617 14.9587C7.49439 10.814 11.1891 6.45016 16.6483 6.83799ZM10.9552 4.43997C11.1319 4.37583 11.3215 4.35577 11.5076 4.38153C11.6937 4.40728 11.8707 4.47807 12.0233 4.58776C12.1759 4.69744 12.2994 4.8427 12.3831 5.01093C12.4668 5.17916 12.5081 5.36528 12.5036 5.55312C12.5036 6.45608 11.3194 7.03339 10.6355 6.40872C10.4814 6.27949 10.3635 6.11244 10.2935 5.92394C10.2234 5.73543 10.2035 5.53196 10.2357 5.33345C10.2679 5.13494 10.3512 4.94822 10.4774 4.79158C10.6035 4.63495 10.7682 4.51378 10.9552 4.43997ZM6.83716 5.79589C6.79016 5.9814 6.69791 6.15237 6.56865 6.2935C6.4394 6.43462 6.27717 6.5415 6.09648 6.60456C5.9158 6.66762 5.7223 6.68491 5.5333 6.65486C5.3443 6.62482 5.16569 6.54838 5.01347 6.4324C4.84836 6.30557 4.72061 6.13646 4.64375 5.94297C4.56689 5.74948 4.54378 5.53881 4.57687 5.33325C4.60996 5.1277 4.69801 4.93492 4.8317 4.77532C4.96539 4.61571 5.13975 4.49523 5.33632 4.42662C5.53289 4.35802 5.74436 4.34384 5.94833 4.38558C6.1523 4.42733 6.34118 4.52346 6.49499 4.66378C6.6488 4.8041 6.7618 4.9834 6.82203 5.1827C6.88227 5.38199 6.88749 5.59387 6.83716 5.79589Z" fill="white"/>
</svg>
