<svg width="21" height="17" viewBox="0 0 21 17" fill="none" xmlns="http://www.w3.org/2000/svg">
<path d="M20.614 2.55307C20.1413 3.26319 19.5637 3.89759 18.9009 4.43465C18.8173 4.50428 18.7503 4.59168 18.7048 4.69046C18.6593 4.78925 18.6364 4.89694 18.6377 5.0057V5.07149C18.63 6.49765 18.368 7.91101 17.864 9.24517C17.3447 10.6455 16.5732 11.9388 15.5877 13.061C14.2634 14.5686 12.5597 15.6944 10.6535 16.3215C9.40096 16.728 8.09142 16.9315 6.77456 16.9241C4.68545 16.9239 2.63358 16.3709 0.827194 15.3215C0.762464 15.2847 0.711508 15.2278 0.682062 15.1594C0.652616 15.091 0.646287 15.0149 0.664037 14.9425C0.682251 14.8714 0.723757 14.8084 0.781941 14.7635C0.840125 14.7187 0.911639 14.6946 0.985089 14.6952H1.48509C3.07271 14.6991 4.62522 14.228 5.94298 13.3425C5.15766 13.2154 4.42268 12.8739 3.81905 12.3557C3.21541 11.8375 2.76655 11.1627 2.52193 10.4057C2.50941 10.3678 2.50713 10.3272 2.51534 10.2882C2.52355 10.2491 2.54195 10.2129 2.56868 10.1832C2.5954 10.1536 2.6295 10.1315 2.66751 10.1193C2.70551 10.107 2.74608 10.1051 2.78509 10.1136C3.02458 10.1587 3.26771 10.1816 3.51141 10.182H3.60351C2.8445 9.83331 2.20275 9.27223 1.75582 8.56658C1.30889 7.86093 1.07593 7.04093 1.08509 6.2057C1.08536 6.16662 1.09575 6.12827 1.11524 6.0944C1.13473 6.06052 1.16266 6.03227 1.19632 6.0124C1.22997 5.99253 1.2682 5.98171 1.30727 5.98099C1.34635 5.98028 1.38494 5.9897 1.4193 6.00833C1.72802 6.18069 2.05929 6.30913 2.40351 6.38991C1.72312 5.71676 1.28548 4.83675 1.15926 3.888C1.03305 2.93924 1.2254 1.97543 1.70614 1.14781C1.72433 1.11602 1.74996 1.08912 1.78083 1.06942C1.8117 1.04972 1.84689 1.0378 1.88339 1.0347C1.91988 1.03159 1.95658 1.03739 1.99033 1.05159C2.02409 1.06579 2.0539 1.08797 2.07719 1.11623C3.02767 2.29307 4.20482 3.26705 5.53881 3.98038C6.8728 4.69371 8.33646 5.13187 9.84299 5.26886H9.86404C9.88617 5.26822 9.90794 5.26308 9.92803 5.25375C9.94811 5.24443 9.96608 5.23111 9.98086 5.21462C9.99563 5.19812 10.0069 5.17879 10.0139 5.1578C10.021 5.13682 10.0237 5.11461 10.0219 5.09254C9.96318 4.56442 9.99702 4.03009 10.1219 3.5136C10.2917 2.81153 10.6403 2.16532 11.1337 1.6378C11.6271 1.11027 12.2486 0.719363 12.9377 0.50307C13.3799 0.364951 13.8403 0.293985 14.3035 0.292544C15.3538 0.291333 16.3684 0.674128 17.1561 1.36886C17.2582 1.46016 17.3903 1.51074 17.5272 1.51097C17.5716 1.51001 17.6158 1.50383 17.6588 1.49254C18.399 1.30551 19.1081 1.01211 19.764 0.621492C19.8033 0.597277 19.8491 0.58579 19.8951 0.588602C19.9412 0.591414 19.9852 0.608388 20.0212 0.637201C20.0572 0.666014 20.0835 0.705256 20.0963 0.749553C20.1092 0.79385 20.108 0.841036 20.093 0.88465C19.874 1.57355 19.4837 2.1956 18.9588 2.69254C19.4317 2.57979 19.8933 2.42387 20.3377 2.22675C20.3816 2.20982 20.4296 2.20697 20.4752 2.2186C20.5208 2.23022 20.5616 2.25575 20.5919 2.29164C20.6223 2.32752 20.6408 2.37197 20.6447 2.41882C20.6487 2.46568 20.638 2.5126 20.614 2.55307Z" fill="white"/>
</svg>
