<svg width="11" height="21" viewBox="0 0 11 21" fill="none" xmlns="http://www.w3.org/2000/svg">
<path d="M10.7219 8.71361L10.3904 11.4978C10.376 11.6271 10.3143 11.7466 10.2171 11.8331C10.12 11.9196 9.99416 11.967 9.86404 11.9662H6.96931V20.2294C6.97001 20.3281 6.93167 20.423 6.86265 20.4935C6.79363 20.564 6.69954 20.6043 6.60089 20.6057H3.65089C3.60181 20.605 3.55335 20.5947 3.50828 20.5753C3.4632 20.5558 3.42239 20.5277 3.38818 20.4926C3.35397 20.4574 3.32703 20.4158 3.30889 20.3702C3.29075 20.3246 3.28177 20.2758 3.28246 20.2268L3.29826 11.9662H1.10615C0.966562 11.9662 0.832691 11.9108 0.733988 11.8121C0.635285 11.7134 0.579834 11.5795 0.579834 11.4399V8.65571C0.579834 8.51612 0.635285 8.38226 0.733988 8.28355C0.832691 8.18485 0.966562 8.1294 1.10615 8.1294H3.2851V5.4294C3.2851 2.30571 5.14299 0.605713 7.86404 0.605713H10.093C10.2326 0.605713 10.3664 0.661163 10.4652 0.759867C10.5639 0.85857 10.6193 0.992441 10.6193 1.13203V3.47677C10.6193 3.61635 10.5639 3.75022 10.4652 3.84893C10.3664 3.94763 10.2326 4.00308 10.093 4.00308H8.7272C7.24826 4.02677 6.96931 4.73466 6.96931 5.79255V8.1215H10.2088C10.2827 8.12277 10.3555 8.13959 10.4225 8.17087C10.4894 8.20215 10.5491 8.24718 10.5975 8.30304C10.6459 8.3589 10.682 8.42433 10.7034 8.49507C10.7249 8.56581 10.7312 8.64027 10.7219 8.71361Z" fill="white"/>
</svg>
