<svg width="712" height="245" viewBox="0 0 712 245" fill="none" xmlns="http://www.w3.org/2000/svg">
<g clip-path="url(#clip0_2201_938)">
<path d="M553.613 71.2135C555.864 72.2555 556.334 74.11 556.15 76.3486C556.005 78.1104 555.829 79.9516 558.229 81.21C556.216 81.5985 555.301 82.2697 556.466 83.9299C556.805 84.4112 556.655 85.0867 556.334 85.6166C554.606 88.5042 555.178 91.4052 556.246 94.3149C556.466 94.911 557.033 95.5998 556.488 96.1252C556.062 96.5403 555.415 96.0237 554.87 95.8515C554.189 95.6307 553.393 95.3128 553.059 96.3548C552.623 97.7148 551.66 98.1872 550.315 98.4522C548.249 98.8628 547.391 100.598 546.987 102.435C546.613 104.122 545.769 104.788 544.094 104.603C543.526 104.541 542.924 104.665 542.348 104.771C541.878 104.855 541.192 104.669 541.029 105.296C540.893 105.835 541.411 106.17 541.772 106.537C542.528 107.296 543.583 107.769 544.028 108.797C543.799 109.385 543.276 109.288 542.88 109.398C541.477 109.787 539.943 110.069 541.798 111.879C542.19 112.259 542.115 112.679 541.812 113.063C540.721 114.44 539.613 115.809 538.518 117.191C537.868 118.017 537.23 117.522 536.579 117.204C534.302 116.087 532.235 116.008 530.569 118.326C529.971 119.156 528.916 119.205 528.019 119.478C522.079 121.28 515.998 122.609 510.176 124.799C509.13 125.192 507.833 125.232 507.574 126.737C507.503 127.148 507.002 127.024 506.681 127.135C503.423 128.261 500.429 129.364 497.852 132.239C495.113 135.294 491.763 138.531 486.68 137.864C484.09 137.524 481.439 137.961 478.876 138.778C477.152 139.326 475.719 138.964 475.2 136.835C474.813 135.233 473.613 134.429 472.003 134.261C471.133 134.173 470.249 134.16 469.374 134.089C465.997 133.811 464.617 131.378 466.125 128.393C467.967 124.746 465.733 119.368 461.746 118.246C460.422 117.876 460.497 116.953 460.33 116.114C459.156 110.29 458.013 104.453 456.918 98.6111C456.733 97.6309 456.412 96.7831 455.757 96.0546C453.317 93.3391 452.97 90.2439 454.517 87.0692C455.889 84.2522 455.797 81.965 453.365 79.7706C452.187 78.7064 452.046 77.3862 453.247 75.8894C455.045 73.6376 454.425 70.6704 455.018 68.0476C455.454 66.1181 455.379 64.1312 455.212 62.1354C454.9 58.3867 455.128 54.7087 456.452 51.0748C457.96 46.942 456.87 42.6237 456.711 38.3893C456.641 36.4554 457.01 34.7554 458.175 33.2233C460.303 30.4195 462.418 27.6069 464.533 24.7943C466.015 22.8294 465.918 22.1318 463.975 20.6261C460.484 17.9239 460.66 18.1049 463.799 15.023C466.041 12.8197 468.745 11.6982 471.449 10.4707C472.905 9.81279 474.439 9.41982 476.123 9.9585C477.222 10.3073 478.431 10.2367 479.61 10.0998C482.499 9.7598 482.657 9.6715 482.463 6.82797C482.38 5.63581 482.811 5.24725 483.91 5.20752C485.15 5.16336 486.399 5.0883 487.616 4.88078C489.12 4.62027 490.233 3.80783 490.211 2.11231C490.197 0.995214 490.734 0.765613 491.688 0.752367C497.874 0.690551 503.375 1.80323 506.105 8.40427C506.826 10.1484 508.457 10.974 510.388 10.974C511.192 10.974 512.058 11.08 512.788 10.8239C518.293 8.88114 522.751 11.1462 527.043 14.237C529.241 15.8222 531.492 17.3322 533.686 18.9218C535.955 20.5687 538.461 21.4739 541.253 21.4562C542.994 21.4474 544.036 22.1715 544.85 23.7567C547.259 28.4547 549.537 33.21 551.572 38.0802C551.942 38.9677 552.667 39.9259 551.076 40.5573C550.069 40.9591 550.135 41.8289 550.939 42.4648C552.034 43.3302 552.034 44.3855 551.841 45.6306C551.471 48.0238 551.243 50.439 550.931 52.841C550.253 58.0423 551.603 62.7094 554.492 67.0277C556.277 69.6946 556.211 69.7387 553.608 71.2179L553.613 71.2135ZM510.915 57.6847C510.511 56.8104 510.313 56.4351 510.159 56.0377C509.06 53.2604 509.148 53.1324 512.124 53.128C519.084 53.1191 526.045 53.075 533.005 53.128C534.596 53.1412 535.172 52.682 535.155 50.9953C535.137 49.3793 534.539 49.0658 533.084 49.079C525.979 49.1497 518.869 49.132 511.764 49.1099C511.122 49.1099 509.86 49.4323 510.005 48.4785C510.229 46.995 510.95 45.56 511.627 44.1823C512.124 43.1668 513.215 43.6613 514.024 43.6569C520.469 43.6172 526.92 43.6481 533.365 43.6216C534.003 43.6216 534.838 43.9837 535.133 42.8621C535.669 40.7913 535.04 39.8862 532.917 39.8817C531.523 39.8773 530.134 39.8817 528.74 39.8817C522.294 39.8817 515.844 39.8641 509.398 39.9171C508.835 39.9215 507.596 39.3784 507.771 40.6456C508.106 43.0255 506.866 44.8756 506.127 46.9287C504.619 51.119 505.424 55.1811 507.182 59.1197C508.048 61.0581 508.057 62.8993 507.024 64.8244C506.158 66.4404 505.41 68.1934 505.525 70.0611C505.687 72.7854 503.885 72.2467 502.35 72.1716C500.367 72.0745 501.088 70.5909 501.128 69.5401C501.15 68.9749 501.313 68.3479 501.607 67.8622C503.955 63.981 503.691 60.1176 501.937 56.0686C500.578 52.9293 500.42 49.6972 502.245 46.5313C503.045 45.1405 503.361 43.5377 503.41 41.8731C503.449 40.3939 503.036 39.7758 501.444 39.8243C500.051 39.8685 499.184 40.0186 499.422 41.723C499.567 42.7606 499.268 43.8115 498.776 44.7078C496.164 49.4588 496.674 54.1788 498.833 58.8768C499.69 60.7446 499.752 62.5858 498.859 64.4049C497.874 66.4051 497.162 68.4539 497.109 70.7146C497.096 71.2621 497.193 72.0789 496.428 72.1451C495.35 72.2379 494.133 72.5734 493.196 71.995C492.242 71.4034 492.743 70.2333 492.857 69.3369C492.959 68.5554 493.249 67.7606 493.622 67.063C495.412 63.7205 495.482 60.4134 493.908 56.9296C492.295 53.362 492.022 49.7193 494.111 46.1428C494.902 44.7828 495.025 43.2198 495.06 41.6567C495.091 40.4116 494.713 39.8067 493.297 39.842C489.489 39.9347 485.677 39.9436 481.87 39.842C480.34 39.8023 480.071 40.4204 480.054 41.7715C480.036 43.1624 480.375 43.7452 481.87 43.679C484.354 43.5686 486.851 43.6216 489.34 43.6746C489.788 43.6834 490.628 43.2904 490.589 44.3634C490.527 46.0986 488.883 47.644 487.067 47.644C483.404 47.644 479.737 47.7147 476.079 47.6043C474.496 47.5557 474.281 48.2578 474.32 49.5691C474.356 50.7657 474.281 51.6797 475.996 51.587C478.7 51.4369 481.417 51.5472 484.125 51.5472C488.39 51.5472 488.359 51.5473 489.393 55.6757C489.731 57.0224 490.215 58.3426 490.738 59.6319C491.415 61.3053 490.918 61.9544 489.138 62.1707C485.581 62.599 482.327 64.3564 481.166 67.6149C479.702 71.7213 477.394 72.9841 473.437 72.2379C472.254 72.0171 471.788 72.5955 471.753 73.8539C471.52 81.7089 473.687 88.7824 479.988 93.5908C483.673 96.399 485.097 99.375 484.46 103.702C484.24 105.199 484.965 105.526 486.35 105.517C494.264 105.455 502.174 105.508 510.089 105.464C511.975 105.455 514.384 106.298 515.611 105.119C516.855 103.927 516.033 101.481 515.998 99.6002C515.967 97.8782 516.499 96.814 517.959 95.8117C525.601 90.5707 528.885 83.1086 528.757 73.9378C528.735 72.5072 528.195 72.1849 526.942 72.2158C524.523 72.2732 522.105 72.1981 519.687 72.2555C518.434 72.2864 518.073 71.9685 518.772 70.7896C520.122 68.5201 521.362 66.1888 522.756 63.9501C523.464 62.811 523.521 62.1442 522.189 61.4378C519.41 59.9674 516.671 58.4088 514.006 56.7398C512.722 55.9362 511.795 55.7596 510.924 57.7023L510.915 57.6847Z" fill="#E82026"/>
<path d="M48.423 101.463C53.2639 99.5914 57.6959 96.8891 62.3346 94.6063C62.7435 94.4032 62.8842 94.0677 63.0161 93.6173C63.5437 91.8246 64.6473 90.9725 66.5819 91.6524C67.281 91.8997 67.6415 91.2683 68.0724 90.9239C70.794 88.7692 73.2035 86.3672 74.5313 83.0247C75.2568 81.1968 76.2285 79.4703 77.0903 77.6997C77.398 77.4922 77.6575 77.1346 77.3937 76.8696C76.9847 76.4502 76.9232 77.0948 76.6902 77.2405C75.6569 78.053 74.5709 78.8124 73.6212 79.7132C73.2958 80.0223 71.5151 80.4815 73.4277 81.2762C73.7179 81.3954 73.2782 81.8811 73.0144 82.1196C70.9128 84.005 68.4417 85.334 65.7861 86.089C64.7572 86.3804 63.6756 86.9015 62.3522 86.9854C62.6467 82.5523 67.4437 81.9694 68.9166 78.521C67.3469 78.1678 65.8564 79.0244 64.3043 78.8168C62.3038 78.5519 61.7498 77.607 62.0796 75.7128C62.4709 73.4963 62.6951 71.2532 62.8402 69.0014C61.1914 73.3329 61.1914 77.8675 61.0199 82.4022C60.888 85.8947 60.5275 89.3829 60.2725 92.8711C60.2065 93.7365 59.5734 93.8999 58.8875 93.9838C58.1708 94.0721 57.4585 94.0633 56.8298 94.5799C55.9724 95.2863 55.0974 95.5071 54.772 94.1251C53.6684 94.3723 54.6709 95.2775 54.0246 95.5557C53.22 95.1009 52.8067 93.0256 51.4129 94.9375C51.215 95.2113 50.9908 95.1804 50.5819 94.4562C49.6586 92.8269 48.234 91.5332 47.7327 89.586C47.5041 88.6941 46.4357 87.917 45.3629 89.1312C44.7825 89.7891 43.9339 90.2969 43.5822 91.0519C42.1224 94.1648 38.9655 95.9486 36.389 96.5447C33.2233 97.2777 34.1862 99.6223 33.4871 100.987C32.445 103.013 31.0161 103.155 29.4904 103C27.3008 102.779 25.1771 102.492 22.9523 101.627C18.5819 99.9313 16.6077 96.4211 14.2598 93.0168C14.1367 92.8402 14.1235 92.509 13.974 92.434C10.8831 90.9283 11.7316 88.0097 11.5382 85.5062C11.3271 82.804 10.7687 80.115 11.182 77.373C11.5953 74.6443 12.7649 72.3174 14.9413 70.6395C15.7987 69.9772 16.7484 69.2707 17.8036 70.9927C19.2414 73.3462 21.2463 75.3463 22.9699 77.5275C23.5019 78.1987 24.0031 77.8101 24.5264 77.6335C27.8372 76.4943 31.1392 75.3331 34.4588 74.216C35.237 73.9555 35.5756 73.536 35.747 72.6927C36.134 70.7675 36.9825 68.7894 38.8688 68.2066C40.3505 67.7474 41.4629 65.787 43.5953 67.0189C44.4527 67.5178 45.165 65.8841 45.8641 65.1511C46.6292 64.3475 45.6794 63.9899 45.2398 63.6587C41.265 60.6386 38.8072 56.5146 36.7319 52.0859C35.7998 50.099 35.5624 48.0238 35.5975 45.869C35.6151 44.8844 35.9097 44.1603 36.9781 44.5312C40.0119 45.5865 42.6632 44.4208 45.1123 42.9725C49.021 40.6589 53.4354 39.5109 57.375 37.259C59.1865 36.2258 61.209 37.1486 62.9721 38.1597C64.744 39.1753 66.4368 40.7339 68.323 41.0342C70.7501 41.4183 72.1483 42.8489 73.6652 44.3413C76.1581 46.783 76.7121 49.8253 75.9119 53.0882C75.0941 56.4131 72.3505 56.8546 69.22 56.8678C70.4819 58.7444 71.5415 60.0602 73.8938 58.8989C76.6066 57.5611 79.5921 56.413 82.3752 55.7772C85.8751 54.978 89.5333 53.6534 93.3189 54.2495C94.3478 54.4129 95.3942 54.6116 96.1768 55.2827C100.943 59.3758 105.674 63.4865 108.558 69.284C110.634 73.4609 111.117 77.5805 108.681 81.7663C108.497 82.0798 108.382 82.5434 108.11 82.6759C104.773 84.314 103.37 87.7404 101.075 90.3322C99.3426 92.2838 96.9111 92.5973 94.7215 93.4451C93.464 93.9352 92.2461 94.4121 91.4415 95.5027C90.5533 96.7081 89.0232 96.3504 87.9372 97.1231C87.3832 97.5161 86.7457 96.7522 86.7105 96.2754C86.5874 94.6417 85.5234 94.6902 84.3846 94.7432C80.8012 94.9022 77.2881 94.0986 73.7223 93.9661C72.179 93.9087 71.0535 94.0633 70.0158 95.5248C67.5448 99.0041 64.19 101.658 60.6242 104.497C63.6976 105.309 66.5291 105.398 69.3475 105.212C76.866 104.722 84.323 103.671 91.758 102.501C97.2453 101.636 102.68 102.457 108.132 102.74C109.249 102.797 109.112 103.539 108.444 104.188C107.23 105.358 106.026 106.541 104.504 107.323C102.025 108.599 101.282 110.926 100.516 113.416C99.9625 115.222 98.8281 116.931 97.641 118.432C96.8188 119.47 96.2384 120.6 95.957 121.757C95.658 122.993 96.9771 121.721 97.2673 122.251C93.4948 125.828 88.9924 127.806 83.857 128.309C82.6874 128.424 82.2126 128.632 82.6039 130.009C84.4857 136.672 83.4437 143.127 80.9595 149.437C80.7748 149.909 80.4846 150.382 80.4406 150.868C79.8295 157.491 75.0765 160.493 69.7828 162.741C65.8784 164.401 61.675 161.875 59.2084 158.219C57.7399 156.042 56.7594 152.594 53.0353 152.643C52.7847 152.643 52.3626 152.59 52.4022 152.197C52.5868 150.355 50.6259 148.814 51.7646 146.779C52.1999 146.002 52.0944 144.92 51.6943 144.002C51.0875 142.628 50.4764 141.26 49.8652 139.886C49.4519 140.01 49.3464 140.354 49.2409 140.716C47.9966 144.982 45.7234 148.876 44.7825 153.252C44.7517 153.384 44.6418 153.508 44.5495 153.623C41.0056 157.897 37.7212 162.524 31.913 163.968C30.4621 164.33 29.0771 163.469 27.802 162.935C26.7775 162.507 25.9158 162.427 24.7858 162.767C25.2826 159.703 22.7017 158.859 21.0793 157.451C20.4373 156.89 19.5668 156.338 18.705 155.954C16.7968 155.106 14.9677 154.25 12.6857 154.731C10.2719 155.239 7.75252 154.939 5.30789 154.563C3.85255 154.338 2.44557 154.073 1.03859 154.74C0.71762 154.894 0.308717 155.027 0.115257 154.581C-0.00785406 154.298 0.172415 154.113 0.480192 153.936C7.35681 149.993 13.6838 145.088 21.4838 142.796C26.461 141.335 30.4005 138.147 33.0782 133.564C33.2277 133.312 33.364 133.034 33.575 132.839C35.2678 131.254 35.4393 129.806 33.6981 127.982C32.5066 126.733 33.0122 124.56 34.4588 124.26C35.2942 124.084 36.3538 123.929 37.3035 124.168C38.3543 124.432 39.5723 124.251 40.1614 123.607C42.3071 121.258 44.2285 118.706 46.0224 115.955C44.5758 116.966 43.1205 117.964 41.6871 118.997C35.281 123.602 28.4439 127.249 20.5692 128.579C19.4217 128.773 18.2389 128.87 17.0782 128.839C15.9218 128.808 14.2466 128.428 14.3389 127.325C14.4665 125.841 14.0224 123.558 16.4846 123.139C18.2213 122.843 18.9248 121.364 20.1647 120.463C20.5341 121.178 20.5165 122.534 21.5937 123.042C22.7676 123.594 23.8712 122.821 24.9221 122.37C31.8251 119.425 37.8971 115.067 44.1054 110.939C44.4879 110.687 45.165 110.409 44.5099 109.795C43.9559 109.274 43.4415 108.387 42.4874 109.005C41.4453 109.681 40.5044 110.515 39.4623 111.191C37.774 112.286 36.4198 114.251 33.9487 113.434C33.852 113.403 33.6981 113.593 33.5618 113.606C32.8144 113.668 32.0273 115.385 31.5217 114.052C31.1392 113.045 30.8578 111.667 32.0449 110.285C35.8086 105.919 40.2538 102.143 43.3711 97.1938C44.312 95.697 46.3082 95.2687 47.7811 94.5357C48.722 94.0677 50.4412 95.8692 51.6547 96.867C52.3846 97.4675 51.6635 97.8119 51.2238 98.1961C50.1466 99.141 48.6649 99.6532 48.0625 101.115C47.8251 101.256 47.447 101.481 47.6316 101.702C47.8866 102.007 48.2692 101.883 48.445 101.463H48.423ZM62.3566 97.5956C62.062 96.9554 61.6003 97.3086 61.2837 97.4852C58.417 99.1101 55.5635 100.766 52.6088 102.47C54.1037 103.397 55.2249 103.256 56.3945 102.276C58.3247 100.66 60.3472 99.1586 62.3214 97.6088C62.273 97.4278 62.2202 97.2468 62.1719 97.0657C62.0927 97.1364 62.0136 97.207 61.9345 97.2777L62.3566 97.5956ZM67.879 74.5251C68.2087 75.6819 69.5893 75.0108 70.3983 74.7193C72.7858 73.8628 75.0546 73.6596 77.2661 75.0902C78.0752 75.6113 78.4753 75.4523 78.9062 74.5648C80.3791 71.5535 82.0103 68.6172 83.0875 65.4337C84.5209 61.1994 84.5033 61.1949 80.1988 62.0515C79.8427 62.1222 79.4646 62.078 79.1128 62.1575C75.1073 63.0582 70.7501 63.3585 69.3123 68.3965C68.7935 70.2156 68.0812 71.9774 67.879 74.5295V74.5251ZM65.1309 128.782C63.8866 128.923 62.1499 129.086 60.4264 129.338C59.8855 129.417 59.1821 129.453 58.9666 130.119C57.7707 133.798 56.5659 137.471 57.5376 141.445C57.7531 142.319 57.9773 142.319 58.8391 142.16C64.0801 141.176 67.0128 137.838 68.5956 132.972C69.6245 129.81 68.8946 128.755 65.1353 128.782H65.1309ZM35.9669 95.9398C38.5918 93.2641 40.8254 90.6943 42.483 87.6609C42.7468 87.1752 43.204 86.5968 42.9051 86.0272C42.5137 85.281 41.863 85.9168 41.3354 85.9257C39.2381 85.9566 37.1584 86.7778 35.0348 86.0316C34.3093 85.7799 33.4431 85.515 33.5882 84.654C34.1554 81.3027 32.0361 82.1946 30.3038 82.4772C29.6662 82.5832 29.0419 82.7995 27.9911 83.0733C31.1963 87.109 34.1466 91.0608 35.9713 95.9398H35.9669ZM49.109 76.8829C48.6033 76.5694 49.9531 74.6399 48.0933 75.3419C45.9916 76.1323 43.9867 77.2847 42.1048 78.5298C40.9617 79.2849 40.5747 80.8303 40.9705 82.0754C41.4101 83.4574 42.8435 82.8614 43.8416 82.7024C44.7121 82.5655 45.5519 82.4551 46.4357 82.464C47.68 82.4728 49.1793 81.656 48.9639 80.6934C48.6605 79.3511 49.3728 78.2605 49.1133 76.8873L49.109 76.8829ZM52.0944 140.103C51.5624 138.866 52.2307 137.873 52.7275 136.84C53.1232 136.018 54.4599 137.158 54.4247 136.354C54.35 134.526 55.7921 133.175 55.7921 131.166C54.6006 131.74 53.5805 132.234 52.5648 132.725C51.5976 133.188 49.3112 138.023 49.5706 139.021C49.641 139.286 49.8256 139.414 49.9971 139.299C51.1623 138.518 50.8897 140.46 52.0944 140.103ZM67.7119 58.8283C67.7207 56.9341 66.428 57.0665 65.3112 57.2696C64.7001 57.38 64.168 57.7112 63.4602 57.6582C61.3453 57.4992 60.6814 58.4265 61.3761 60.3781C61.5475 60.8594 61.7454 61.3539 61.7894 61.8528C61.9081 63.173 62.6204 62.8242 63.4338 62.577C64.6297 62.2149 64.2516 61.2082 64.1241 60.5768C63.8295 59.0844 64.8363 58.7488 65.7509 58.1262C66.9072 57.3359 66.8017 59.0667 67.7163 58.8327L67.7119 58.8283ZM59.2172 122.967C57.5992 120.922 57.3574 120.962 55.625 123.73C56.9309 123.47 58.1884 123.951 59.2172 122.967ZM44.7253 69.1206C46.4489 68.5069 48.3835 68.3258 50.1422 66.7098C47.4162 66.2638 46.3302 68.264 44.7253 69.1206Z" fill="white"/>
<path d="M116.728 185.432C114.063 186.787 108.8 184.977 107.534 182.169C107.055 181.104 107.705 179.705 108.593 179.753C109.904 179.828 110.414 179.016 111.122 178.438C115.431 174.91 119.656 171.271 123.996 167.779C125.262 166.759 125.767 165.659 125.816 164.061C125.987 158.414 127.034 152.788 126.172 147.123C125.869 145.132 125.935 143.022 124.154 141.507C123.828 141.233 123.376 140.553 124.119 139.657C124.739 138.911 125.112 138.88 125.789 139.074C126.554 139.291 127.196 139.608 127.869 138.672C128.401 137.931 129.417 138.293 130.12 138.619C132.912 139.917 136.003 141.163 137.656 143.741C139.547 146.691 141.754 149.777 141.499 153.619C141.411 154.93 142.053 155.124 142.981 155.217C145.021 155.424 146.986 155.879 148.886 156.837C148.319 157.018 147.795 157.191 147.268 157.358C148.833 157.765 149.264 159.089 149.844 160.237C150.332 161.209 150.218 162.224 149.035 162.401C146.419 162.789 144.88 164.944 142.708 166.013C137.269 168.688 136.412 173.607 136.452 178.892C136.482 182.985 136.834 182.526 140.479 184.451C144.274 186.451 148.398 187.405 152.28 189.079C155.595 190.505 159.535 190.39 163.25 189.728C167.067 189.048 170.487 189.825 173.319 192.403C172.36 195.141 169.933 196.068 167.713 197.419C166.53 198.139 165.563 199.843 165.484 201.482C165.378 203.667 164.455 205.597 164.015 207.637C163.752 208.86 164.266 210.542 164.635 211.973C165.154 213.96 165.066 215.456 162.828 216.445C161.623 216.98 160.74 218.247 159.702 219.17C155.855 222.578 151.339 222.534 147.224 219.479C144.555 217.501 142.066 215.434 139.969 212.842C138.822 211.429 136.702 211.24 135.357 209.292C136.078 215.832 135.792 221.96 137.722 227.952C138.87 231.515 139.173 235.498 136.891 239.039C136.632 239.445 136.641 240.094 135.924 240.028C134.398 239.891 132.864 239.622 132.789 241.984C132.776 242.47 131.826 242.841 131.391 242.2C128.964 238.628 124.958 236.65 122.443 233.136C120.808 230.848 120.351 227.652 117.409 226.331C117.312 226.287 117.22 226.102 117.224 225.987C117.299 223.448 117.075 223.144 114.815 222.053C113.834 221.581 112.968 220.87 112.005 220.353C110.919 219.775 110.678 218.119 111.021 217.929C111.944 217.421 111.548 215.085 113.5 216.092C114.002 216.353 114.714 216.331 115.035 215.664C115.624 214.45 114.349 214.074 113.887 213.249C116.204 211.165 118.35 213.518 120.83 213.527C121.445 208.462 122.07 203.354 122.69 198.236C121.753 198.099 121.538 198.757 121.208 199.186C118.205 203.08 115.365 207.085 112.894 211.346C110.159 216.066 106.734 220.225 102.46 223.634C101.84 224.128 101.699 224.481 101.932 225.254C102.332 226.579 102.618 227.956 102.785 229.33C102.948 230.663 102.812 231.935 100.899 231.718C100.626 231.687 100.094 231.833 100.094 231.838C100.393 234.01 98.5336 234.791 97.6278 236.209C96.4978 237.975 95.4558 237.683 94.5193 237.012C90.0345 233.776 85.4486 230.734 83.8086 224.76C83.0128 221.859 79.8735 220.41 77.4728 218.662C76.6902 218.092 76.6242 218.167 76.8001 216.966C76.8485 216.653 76.6462 216.609 76.4704 216.538C74.7248 215.863 74.6545 214.578 75.5822 213.31C76.3165 212.313 75.2524 211.822 75.2129 211.006C77.9741 210.811 80.3088 211.792 82.6127 212.997C85.0178 214.26 85.1497 214.194 85.176 211.372C85.2068 207.919 85.0837 204.466 85.0134 201.014C84.987 199.777 85.198 198.554 84.9166 197.291C84.6352 196.029 84.1648 196.214 83.5184 196.89C82.8106 197.631 82.0895 198.386 81.5267 199.239C78.1455 204.369 73.2431 207.323 67.5316 209.058C66.2917 209.434 65.2453 210.648 63.3898 210.153C65.7026 208.083 67.8482 206.294 69.8444 204.352C74.0653 200.236 77.6135 195.574 80.5066 190.439C82.3357 187.193 82.1774 186.703 79.5086 184.337C74.7688 180.129 71.6998 174.702 68.2527 168.874C73.9642 169.929 78.4225 167.271 83.1139 165.518C84.0637 165.165 84.9606 164.657 85.9103 164.299C86.9919 163.893 87.3173 163.2 87.5239 162.03C88.9837 153.738 90.8919 145.569 94.2511 137.789C94.7875 136.544 95.3063 136.743 96.0538 137.228C98.2258 138.637 99.2283 140.96 100.464 143.092C100.846 143.754 100.301 144.231 100.081 144.677C97.8345 149.23 98.0367 154.4 96.4011 159.102C96.1285 159.888 96.6473 160.29 97.3552 159.875C101.238 157.61 105.7 157.142 109.847 155.711C111.504 155.142 113.171 154.881 115.132 154.431C114.529 156.069 113.404 156.877 112.318 157.588C109.631 159.341 108.009 162.162 105.59 164.167C105.375 164.344 105.177 164.635 105.129 164.904C104.311 169.289 101.967 173.563 104.109 178.155C104.267 178.495 104.267 178.716 104.082 178.892C101.576 181.294 101.057 185.401 97.1925 186.628C100.728 189.648 101.189 189.723 102.543 187.533C103.194 187.758 103.748 188.452 103.647 188.88C103.115 191.154 104.852 191.944 106.127 193.053C108.778 195.353 109.57 198.585 108.242 201.72C107.354 203.817 104.214 204.303 102.913 202.462C102.016 201.195 100.591 200.515 99.7559 199.159C98.6787 197.419 96.7397 196.214 96.8056 193.79C96.8232 193.15 96.1637 192.686 95.3898 192.236C94.9326 195.362 95.6009 198.338 95.9175 201.287C96.344 205.288 96.4407 209.354 97.5707 213.262C97.9312 214.507 98.2302 215.787 98.7578 216.962C99.1623 217.863 99.9625 218.194 100.899 217.465C102.148 216.49 102.93 215.143 103.603 213.778C106.553 207.791 109.952 202.064 113.351 196.329C115.268 193.097 116.424 189.542 117.062 185.829C117.312 185.67 117.409 185.449 117.185 185.228C117.136 185.18 116.877 185.343 116.714 185.414L116.728 185.432Z" fill="white"/>
<path d="M172.994 94.9111C178.265 82.0622 183.427 69.4783 188.589 56.8944C191.091 50.7967 193.606 44.7034 196.059 38.5837C196.512 37.4533 197.022 36.9102 198.368 36.9191C209.21 36.9853 220.053 36.9588 230.895 36.95C231.805 36.95 232.597 36.8352 232.553 38.2525C232.509 39.5286 231.805 39.427 230.974 39.4491C229.73 39.48 228.486 39.5153 227.246 39.6301C222.977 40.0319 220.651 42.3897 220.29 46.6859C220.198 47.7854 220.202 48.8892 220.202 49.9931C220.202 70.8824 220.347 91.7761 220.145 112.665C220.07 120.238 223.575 122.697 230.284 122.569C230.579 122.565 230.873 122.587 231.163 122.565C232.003 122.499 232.526 122.653 232.544 123.722C232.562 124.83 232.122 125.082 231.119 125.082C216.759 125.055 202.404 125.046 188.044 125.068C187.002 125.068 186.641 124.795 186.659 123.713C186.677 122.657 187.16 122.525 188.013 122.56C189.917 122.64 191.812 122.622 193.672 122.101C196.71 121.245 198.513 119.169 198.746 115.964C198.926 113.473 199.023 110.97 199.027 108.471C199.049 88.2438 199.04 68.0124 199.045 47.7854C199.045 47.2909 199.045 46.7963 199.045 46.3018C198.886 46.2488 198.728 46.1958 198.57 46.1428C197.594 48.3991 196.591 50.6421 195.642 52.9117C185.933 76.1323 176.234 99.353 166.526 122.578C166.328 123.05 166.069 123.501 165.902 123.982C165.695 124.578 165.436 125.007 164.71 125.055C163.831 125.112 163.655 124.525 163.387 123.894C161.14 118.644 158.845 113.412 156.598 108.162C147.989 88.0495 139.393 67.9329 130.789 47.8207C130.595 47.3703 130.353 46.9376 129.76 46.5182C129.76 47.0436 129.76 47.569 129.76 48.09C129.769 69.2001 129.839 90.3146 129.751 111.425C129.72 118.6 133.708 122.163 140.747 122.587C141.455 122.631 142.541 122.017 142.563 123.647C142.585 125.139 141.789 125.077 140.769 125.077C131.905 125.059 123.041 125.055 114.177 125.073C113.206 125.073 112.529 125.09 112.52 123.739C112.511 122.423 113.25 122.596 114.059 122.565C121.239 122.287 124.835 118.538 124.835 111.288C124.844 90.765 124.849 70.2422 124.818 49.7149C124.818 47.962 124.642 46.187 124.334 44.4606C123.908 42.0542 121.041 39.9701 117.875 39.6345C116.569 39.4977 115.241 39.4314 113.931 39.4756C112.863 39.5109 112.546 39.1179 112.524 38.0847C112.507 37.0074 113.039 36.9279 113.878 36.9279C125.011 36.95 136.148 36.9809 147.281 36.9191C148.53 36.9102 148.684 37.6432 149.013 38.4291C154.734 51.9182 160.454 65.4029 166.179 78.8919C168.412 84.1507 170.65 89.405 172.989 94.9111H172.994Z" fill="white"/>
<path d="M399.746 154.435C409.485 154.493 419.228 154.179 428.941 155.257C437.106 156.162 444.334 158.802 449.228 165.898C456.469 176.402 454.689 194.739 436.341 200.25C435.923 200.373 435.51 200.528 435.079 200.598C434.015 200.779 433.764 201.084 434.499 202.104C442.316 213.015 450.085 223.965 457.872 234.893C459.864 237.683 462.383 239.706 465.923 240.01C467.118 240.112 466.776 240.907 466.868 241.587C467 242.536 466.49 242.686 465.716 242.686C457.146 242.673 448.573 242.66 440.003 242.699C438.944 242.704 438.68 241.966 438.231 241.331C429.442 228.861 420.649 216.392 411.855 203.923C411.068 202.811 406.675 201.874 405.541 202.585C404.978 202.934 405.167 203.499 405.172 203.972C405.233 213.315 405.022 222.653 405.299 231.996C405.475 237.953 408.509 239.432 413.214 240.002C414.08 240.108 414.977 240.116 415.847 240.028C417.039 239.904 417.281 240.381 417.307 241.512C417.342 242.827 416.617 242.677 415.79 242.677C401.799 242.673 387.804 242.668 373.814 242.686C372.948 242.686 372.31 242.752 372.323 241.485C372.336 240.297 372.71 239.988 373.831 240.015C375.357 240.05 376.865 240.041 378.4 239.666C382.291 238.725 384.067 236.836 384.283 232.888C384.81 223.188 384.472 213.474 384.498 203.769C384.533 190.973 384.524 178.173 384.318 165.377C384.225 159.61 382.225 157.751 376.518 157.146C375.792 157.071 375.054 157.089 374.324 157.036C373.418 156.97 372.262 157.508 372.314 155.68C372.372 153.799 373.625 154.466 374.46 154.462C382.884 154.422 391.309 154.435 399.733 154.435H399.746ZM405.181 178.495H405.172C405.172 184.381 405.172 190.262 405.176 196.148C405.176 196.894 404.877 197.755 406.267 197.72C410.87 197.614 415.482 197.879 420.033 196.81C425.428 195.538 428.967 192.231 430.612 187.021C432.401 181.356 432.243 175.612 430.497 169.947C428.805 164.449 424.905 161.367 419.439 160.096C415.333 159.138 411.151 159.345 406.988 159.253C405.563 159.222 405.119 159.588 405.141 161.072C405.229 166.882 405.176 172.693 405.176 178.499L405.181 178.495Z" fill="white"/>
<path d="M318.489 153.221C327.88 153.018 336.894 154.554 344.9 159.756C355.69 166.768 362.404 176.609 364.488 189.458C367.034 205.168 363.486 219.183 352.678 231.038C345.74 238.646 337.008 242.796 326.821 244.024C318.071 245.079 309.436 244.783 301.09 241.768C286.796 236.597 277.822 226.283 273.931 211.756C270.22 197.905 271.482 184.442 279.775 172.362C288.313 159.919 300.268 153.468 315.415 153.221C316.44 153.203 317.468 153.221 318.489 153.221ZM341.919 196.051C341.462 191.52 341.607 188.138 341.167 184.774C340.367 178.623 339.004 172.684 335.843 167.271C328.707 155.062 312.214 153.954 303.583 165.165C298.07 172.327 296.658 180.848 295.889 189.538C295.37 195.401 295.37 201.27 295.836 207.151C296.377 213.982 297.533 220.649 300.347 226.936C305.931 239.414 316.62 241.834 326.539 238.191C332.668 235.939 335.816 230.614 338.081 224.795C341.836 215.152 341.91 205.027 341.924 196.055L341.919 196.051Z" fill="white"/>
<path d="M506.101 242.677C494.084 242.677 482.068 242.677 470.051 242.677C469.053 242.677 467.985 242.964 468.147 241.225C468.24 240.205 468.587 240.028 469.462 240.032C471.498 240.037 473.551 240.24 475.543 239.538C478.181 238.602 479.9 236.906 480.159 234.005C480.322 232.177 480.507 230.341 480.511 228.508C480.537 208.202 480.392 187.895 480.595 167.589C480.674 159.469 477.666 156.797 469.985 157.031C469.088 157.058 468.121 157.363 468.138 155.738C468.156 154.117 469.123 154.444 470.025 154.444C493.253 154.444 516.477 154.457 539.705 154.404C541.271 154.404 541.653 154.841 541.636 156.369C541.561 163.871 541.614 171.377 541.596 178.883C541.596 179.599 541.992 180.557 540.655 180.689C539.468 180.804 539.05 180.367 538.791 179.197C538.281 176.918 537.639 174.649 536.834 172.459C533.963 164.63 528.001 160.988 520.021 160.056C514.538 159.416 509.042 159.804 503.555 159.628C502.095 159.579 501.576 159.866 501.589 161.491C501.673 172.159 501.664 182.826 501.603 193.494C501.594 194.982 501.875 195.481 503.489 195.454C512.287 195.309 517.097 190.986 519.212 181.069C519.577 179.347 519.937 177.607 520.069 175.859C520.162 174.645 520.79 174.693 521.652 174.636C522.822 174.556 522.725 175.28 522.725 176.035C522.725 190.456 522.725 204.877 522.725 219.298C522.725 220.008 522.905 220.799 521.714 220.794C520.702 220.79 520.201 220.635 520.047 219.408C519.502 214.948 518.354 210.679 516.007 206.745C512.933 201.596 508.088 200.461 502.68 200.307C501.721 200.28 501.616 200.731 501.633 201.495C501.849 211.862 501.189 222.238 502.047 232.592C502.231 234.822 503.827 236.946 506.07 237.229C515.351 238.407 524.528 238.24 532.882 233.299C538.976 229.696 542.37 223.903 544.652 217.368C544.845 216.816 545.074 216.26 545.166 215.686C545.364 214.489 546.186 214.366 547.118 214.485C548.363 214.644 547.809 215.642 547.734 216.216C546.855 222.684 545.914 229.144 544.99 235.604C544.771 237.127 544.309 238.664 544.379 240.174C544.489 242.452 543.469 242.743 541.504 242.73C529.707 242.642 517.91 242.686 506.114 242.69L506.101 242.677Z" fill="white"/>
<path d="M226.186 154.435C237.688 154.435 249.19 154.47 260.692 154.395C262.425 154.382 263.058 154.696 263.023 156.612C262.9 163.672 262.996 170.737 262.952 177.797C262.948 178.579 263.564 179.771 261.862 179.89C260.354 180 260.336 179.25 260.174 178.084C258.617 166.851 252.189 160.939 241.012 160.016C235.296 159.544 229.594 159.778 223.882 159.628C222.691 159.597 222.44 159.981 222.445 161.107C222.48 172.141 222.48 183.179 222.44 194.214C222.436 195.41 222.686 195.883 223.988 195.856C226.635 195.799 229.268 195.609 231.819 194.938C237.702 193.388 240.907 189.131 242.683 183.603C243.263 181.806 243.686 179.934 243.945 178.066C244.081 177.099 244.367 176.874 245.264 176.839C246.403 176.79 246.372 177.457 246.372 178.239C246.359 182.504 246.359 186.769 246.359 191.039C246.359 200.457 246.376 209.871 246.346 219.289C246.346 219.942 246.864 220.984 245.444 221.077C244.279 221.152 244.064 220.688 243.923 219.593C243.642 217.425 243.14 215.275 242.608 213.151C240.08 203.08 231.049 200.285 223.403 200.669C221.957 200.74 222.48 201.746 222.475 202.409C222.445 210.131 222.449 217.858 222.458 225.585C222.458 228.159 222.788 230.747 222.735 233.286C222.66 237.047 226.476 239.816 230.051 240.023C231.076 240.085 232.1 240.072 233.129 240.05C234.122 240.028 234.945 239.926 234.949 241.45C234.949 242.933 234.101 242.682 233.256 242.682C219.041 242.682 204.831 242.682 190.616 242.69C189.71 242.69 188.963 242.823 188.967 241.41C188.976 240.099 189.552 240.068 190.541 240.041C192.282 239.997 194.019 240.24 195.765 239.697C199.339 238.58 200.909 236.858 201.217 233.162C201.362 231.405 201.349 229.634 201.349 227.868C201.357 207.932 201.357 187.992 201.353 168.057C201.353 166.953 201.335 165.849 201.274 164.75C201.014 160.029 198.636 157.539 193.94 157.093C192.995 157.005 192.027 157.129 191.086 157.023C190.255 156.93 188.994 157.703 188.967 155.8C188.945 153.98 190.097 154.457 191.007 154.457C202.729 154.44 214.451 154.448 226.173 154.448L226.186 154.435Z" fill="white"/>
<path d="M560.595 227.89C560.595 222.962 560.573 218.03 560.621 213.103C560.625 212.454 560.05 211.438 561.487 211.297C562.758 211.173 563.259 211.628 563.523 212.851C564.873 219.099 567.181 224.958 571.38 229.837C577.105 236.487 584.162 240.5 593.215 240.024C601.758 239.573 608.278 233.021 607.21 225.329C606.541 220.512 603.437 217.311 599.726 214.67C595.242 211.478 590.172 209.31 585.322 206.753C579.242 203.548 573.099 200.404 568.206 195.384C561.316 188.31 558.981 179.899 561.879 170.49C564.851 160.842 571.846 155.159 581.581 153.124C588.642 151.649 595.554 152.585 602.118 155.716C603.635 156.44 605.134 157.213 606.7 157.804C610.793 159.358 612.517 158.462 613.669 154.294C613.708 154.153 613.739 154.007 613.752 153.861C613.827 153.036 614.095 152.532 615.093 152.532C616.32 152.532 616.074 153.376 616.091 154.042C616.241 159.557 616.36 165.072 616.5 170.582C616.579 173.669 616.72 176.755 616.738 179.841C616.738 180.601 617.415 181.815 615.665 181.895C614.302 181.956 613.972 181.391 613.717 180.199C612.068 172.419 608.195 166.048 601.569 161.54C595.884 157.667 589.715 156.193 583.04 158.391C575.245 160.961 571.103 170.582 579.026 177.762C583.612 181.917 589.227 184.292 594.613 187.061C600.738 190.204 606.893 193.3 612.266 197.68C626.156 208.992 625.509 228.773 610.78 239.021C601.01 245.817 590.344 246.029 579.373 242.439C577.303 241.759 575.333 240.774 573.266 240.077C568.887 238.597 566.289 239.542 563.708 243.406C563.435 243.816 563.356 244.474 562.745 244.501C561.632 244.549 560.467 244.916 560.529 242.898C560.683 237.9 560.577 232.897 560.577 227.894L560.595 227.89Z" fill="white"/>
<path d="M293.189 110.241C293.189 105.314 293.176 100.386 293.207 95.4587C293.207 94.7787 292.767 93.719 294.222 93.8338C295.115 93.9044 295.669 93.8294 295.964 95.1187C297.942 103.751 301.517 111.495 308.811 117.01C314.619 121.399 321.003 123.448 328.329 122.15C335.117 120.949 340.257 115.094 339.809 108.489C339.47 103.477 336.344 100.06 332.484 97.3043C327.221 93.5468 321.223 91.1051 315.578 88.0364C310.363 85.2061 305.157 82.3537 300.928 78.0575C294.025 71.0547 291.461 62.7272 294.284 53.2562C297.032 44.0236 303.491 38.2394 312.768 35.908C319.843 34.1286 326.834 34.76 333.561 37.7272C335.768 38.6986 337.949 39.745 340.218 40.5486C343.265 41.6304 344.913 40.7252 345.933 37.6698C346.14 37.0516 346.351 36.4202 346.448 35.7756C346.606 34.7335 347.367 35.0735 347.969 35.0249C348.853 34.9499 348.624 35.6299 348.637 36.0758C348.857 45.1186 349.055 54.1613 349.275 63.2041C349.293 63.8487 349.319 64.4669 348.435 64.33C347.701 64.2152 346.698 64.8775 346.417 63.3895C345.709 59.6276 344.54 55.9717 342.416 52.7661C336.885 44.4165 329.586 39.1887 319.051 40.0497C312.307 40.6016 307.145 45.878 307.312 51.9757C307.4 55.2078 308.996 57.6672 311.19 59.8528C314.791 63.4425 319.328 65.5443 323.747 67.8226C330.826 71.4653 337.927 75.0065 344.39 79.7884C359.128 90.6944 358.605 113.319 340.437 123.28C330.962 128.477 320.96 128.252 310.957 124.552C308.974 123.819 307.039 122.923 305.025 122.3C301.398 121.174 298.624 122.26 296.509 125.448C296.346 125.691 296.139 125.925 296.052 126.194C295.656 127.417 294.645 127.06 293.844 127.007C292.794 126.941 293.216 126.018 293.211 125.47C293.176 120.397 293.189 115.319 293.194 110.246L293.189 110.241Z" fill="white"/>
<path d="M671.619 154.426C684.07 154.426 696.522 154.462 708.974 154.382C710.64 154.373 711.049 154.815 711.027 156.457C710.931 163.222 710.997 169.991 710.966 176.76C710.966 177.373 711.432 178.3 710.183 178.446C709.123 178.57 708.548 178.181 708.301 177.144C707.681 174.578 706.885 172.062 705.769 169.668C702.805 163.328 697.969 159.765 690.85 159.672C688.432 159.641 686.014 159.72 683.6 159.632C682.404 159.588 681.982 159.862 681.986 161.173C682.022 183.608 682 206.043 682.013 228.473C682.013 229.864 682.241 231.255 682.316 232.65C682.562 237.193 685.297 239.882 689.87 240.032C690.969 240.068 692.073 240.116 693.163 240.032C694.311 239.94 694.662 240.333 694.68 241.498C694.698 242.774 694.012 242.686 693.159 242.686C678.803 242.673 664.443 242.673 650.088 242.686C649.155 242.686 648.425 242.774 648.443 241.388C648.456 240.068 649.067 240.019 650.066 240.037C652.106 240.081 654.15 240.182 656.137 239.48C658.991 238.469 660.697 236.27 660.763 233.206C661.282 209.23 660.86 185.255 660.987 161.279C660.987 160.515 661.233 159.601 659.888 159.645C655.812 159.773 651.727 159.42 647.678 160.427C642.314 161.756 639.342 165.553 637.113 170.198C636.066 172.379 635.376 174.711 635.033 177.1C634.861 178.287 634.325 178.468 633.305 178.468C631.946 178.468 632.254 177.528 632.254 176.782C632.241 170.013 632.302 163.248 632.21 156.48C632.188 154.841 632.601 154.373 634.272 154.387C646.724 154.462 659.176 154.426 671.627 154.426H671.619Z" fill="white"/>
<path d="M404.297 36.9456C416.678 36.9456 429.055 36.981 441.437 36.9059C443.143 36.8971 443.635 37.3077 443.609 39.0606C443.503 45.7544 443.578 52.4481 443.552 59.1419C443.552 59.8175 444.018 60.8418 442.58 60.8418C441.56 60.8418 441.111 60.6387 440.808 59.504C440.153 57.0358 439.366 54.5675 438.315 52.2494C435.514 46.0811 430.915 42.3545 423.907 42.2044C421.273 42.147 418.631 42.1911 416.001 42.0763C414.818 42.0278 414.55 42.4428 414.555 43.5732C414.59 66.9616 414.581 90.3544 414.599 113.743C414.603 120.582 418.569 122.494 423.841 122.578C424.575 122.591 425.309 122.636 426.035 122.574C427.011 122.485 427.081 123.059 427.099 123.797C427.116 124.539 427.068 125.148 426.087 125.06C425.797 125.033 425.503 125.06 425.208 125.06C411.143 125.06 397.082 125.06 383.016 125.046C382.163 125.046 381.02 125.479 381.112 123.797C381.165 122.847 381.416 122.543 382.37 122.547C384.115 122.552 385.852 122.671 387.598 122.203C391.41 121.178 393.309 119.024 393.402 115.001C393.511 110.003 393.485 105 393.49 99.9977C393.498 81.4618 393.454 62.9259 393.551 44.39C393.56 42.3545 392.962 41.9925 391.128 42.0631C387.549 42.1956 383.935 41.9395 380.418 42.7961C374.231 44.3017 371.022 48.8849 368.903 54.4527C368.283 56.0864 367.869 57.8217 367.583 59.5481C367.381 60.7756 366.731 60.8463 365.759 60.8551C364.479 60.8639 364.844 59.9543 364.844 59.3141C364.822 52.3245 364.888 45.3393 364.778 38.3497C364.752 36.5659 365.785 36.9589 366.73 36.9589C379.257 36.9501 391.784 36.9545 404.31 36.9545L404.297 36.9456Z" fill="white"/>
<path d="M260.459 36.95C267.49 36.95 274.52 36.9412 281.551 36.9633C282.312 36.9633 283.367 36.5041 283.376 38.0627C283.389 39.5374 282.553 39.458 281.529 39.4668C279.414 39.4933 277.299 39.4491 275.281 40.3499C272.845 41.4317 271.561 43.2331 271.249 45.8868C270.77 49.9181 270.836 53.9582 270.84 58.0027C270.862 76.0176 270.871 94.0325 270.924 112.047C270.928 113.73 271.095 115.425 271.337 117.094C271.75 119.955 274.973 122.3 278.724 122.547C279.819 122.618 280.922 122.609 282.017 122.569C282.839 122.543 283.393 122.582 283.354 123.695C283.318 124.728 283.024 125.077 281.955 125.077C267.529 125.046 253.104 125.055 238.678 125.077C237.763 125.077 237.367 124.839 237.385 123.841C237.398 122.918 237.653 122.543 238.629 122.547C240.445 122.556 242.261 122.68 244.072 122.176C247.709 121.165 249.52 119.081 249.661 115.288C249.758 112.643 249.722 109.994 249.718 107.349C249.718 87.4932 249.731 67.6415 249.687 47.7854C249.674 41.8467 246.627 39.2769 240.647 39.8509C239.764 39.9348 238.814 39.639 237.935 39.3741C237.033 39.1047 237.433 38.2614 237.442 37.6741C237.46 36.5615 238.374 36.9765 238.928 36.9721C246.104 36.9456 253.279 36.9544 260.459 36.9544V36.9456V36.95Z" fill="white"/>
<path d="M510.915 57.6848C511.786 55.7421 512.713 55.9187 513.997 56.7223C516.662 58.3913 519.401 59.9455 522.18 61.4203C523.512 62.1267 523.455 62.7935 522.747 63.9326C521.353 66.1713 520.113 68.507 518.763 70.7721C518.064 71.951 518.425 72.2689 519.678 72.238C522.096 72.1806 524.514 72.2557 526.933 72.1983C528.186 72.1674 528.727 72.4897 528.749 73.9203C528.881 83.0911 525.596 90.5532 517.95 95.7942C516.486 96.7965 515.958 97.8562 515.989 99.5827C516.024 101.464 516.846 103.91 515.602 105.102C514.375 106.281 511.966 105.438 510.08 105.446C502.166 105.49 494.256 105.438 486.341 105.499C484.956 105.508 484.231 105.181 484.451 103.685C485.088 99.3575 483.664 96.3815 479.979 93.5733C473.674 88.7693 471.511 81.6914 471.744 73.8364C471.779 72.5824 472.245 71.9996 473.428 72.2204C477.389 72.9622 479.693 71.6994 481.158 67.5974C482.323 64.3389 485.576 62.5815 489.129 62.1532C490.91 61.9369 491.411 61.2878 490.729 59.6144C490.206 58.3251 489.723 57.0049 489.384 55.6582C488.355 51.5342 488.386 51.5253 484.117 51.5298C481.404 51.5298 478.687 51.4194 475.987 51.5695C474.272 51.6666 474.347 50.7482 474.312 49.5517C474.272 48.2359 474.492 47.5382 476.07 47.5868C479.729 47.7016 483.396 47.6309 487.058 47.6265C488.874 47.6265 490.518 46.0811 490.58 44.3459C490.619 43.2774 489.78 43.6703 489.331 43.6571C486.843 43.6041 484.345 43.5511 481.861 43.6615C480.366 43.7277 480.023 43.1449 480.045 41.754C480.063 40.4029 480.331 39.7848 481.861 39.8245C485.669 39.9261 489.481 39.9172 493.288 39.8245C494.709 39.7892 495.082 40.3941 495.051 41.6392C495.016 43.1979 494.893 44.7653 494.102 46.1253C492.013 49.7018 492.286 53.3445 493.899 56.9121C495.474 60.3959 495.403 63.703 493.614 67.0455C493.24 67.7431 492.95 68.5379 492.849 69.3194C492.734 70.2158 492.233 71.3859 493.187 71.9775C494.124 72.5559 495.342 72.2204 496.419 72.1276C497.184 72.0614 497.087 71.2446 497.1 70.697C497.153 68.4364 497.865 66.3876 498.85 64.3874C499.747 62.5683 499.686 60.7315 498.824 58.8593C496.665 54.1569 496.155 49.4368 498.767 44.6903C499.259 43.7984 499.558 42.7431 499.413 41.7055C499.176 40.0055 500.042 39.851 501.436 39.8068C503.032 39.7583 503.441 40.372 503.401 41.8556C503.357 43.5202 503.04 45.123 502.236 46.5138C500.411 49.6797 500.569 52.9118 501.928 56.0511C503.678 60.1001 503.942 63.9636 501.598 67.8447C501.308 68.326 501.141 68.953 501.119 69.5226C501.079 70.5734 500.358 72.0614 502.341 72.1541C503.876 72.2292 505.683 72.7679 505.516 70.0436C505.402 68.1758 506.153 66.4185 507.015 64.8069C508.044 62.8862 508.035 61.0405 507.173 59.1022C505.415 55.1636 504.61 51.1015 506.118 46.9112C506.857 44.8581 508.097 43.008 507.763 40.6281C507.587 39.3609 508.827 39.904 509.389 39.8996C515.835 39.8466 522.285 39.8642 528.731 39.8642C530.125 39.8642 531.514 39.8642 532.908 39.8642C535.032 39.8731 535.66 40.7782 535.124 42.8446C534.834 43.9706 533.998 43.6041 533.356 43.6041C526.911 43.6306 520.461 43.6041 514.015 43.6394C513.201 43.6438 512.115 43.1493 511.619 44.1648C510.946 45.5425 510.225 46.9775 509.996 48.461C509.851 49.4148 511.113 49.0924 511.755 49.0924C518.86 49.1189 525.97 49.1322 533.075 49.0615C534.526 49.0483 535.128 49.3574 535.146 50.9778C535.164 52.6645 534.588 53.1237 532.996 53.1105C526.036 53.0575 519.076 53.1016 512.115 53.1105C509.143 53.1105 509.055 53.2429 510.15 56.0202C510.304 56.4132 510.502 56.7929 510.906 57.6672L510.915 57.6848ZM500.438 76.1633V76.1324C492.822 76.1324 485.207 76.1324 477.587 76.1368C476.677 76.1368 475.468 75.8719 475.758 77.4659C475.974 78.6448 475.618 80.1372 477.812 80.0533C482.784 79.8679 487.766 80.0047 492.739 79.8899C494.326 79.8546 494.669 80.433 494.682 81.921C494.695 83.5062 494.137 83.9035 492.646 83.877C488.179 83.7976 483.712 83.8947 479.245 83.8373C477.622 83.8152 477.455 84.3848 478.225 85.6256C479.588 87.82 481.219 89.754 483.193 91.4539C485.238 93.2112 487.366 94.0766 490.14 93.9972C496.872 93.8117 503.616 93.7941 510.348 93.9972C513.136 94.0811 515.299 93.1936 517.317 91.476C519.238 89.8423 520.777 87.9127 522.118 85.7889C523.064 84.2965 522.765 83.7887 520.984 83.8196C516.517 83.8991 512.05 83.7843 507.582 83.9035C505.982 83.9477 505.802 83.2368 505.78 81.9387C505.758 80.5655 506.123 79.9915 507.64 80.0224C512.472 80.1151 517.313 79.8944 522.136 80.1195C524.413 80.2255 524.62 79.1481 524.668 77.435C524.739 75.1301 523.006 76.2296 522.175 76.2163C514.925 76.1192 507.675 76.1589 500.424 76.1589L500.438 76.1633ZM500.244 101.764C503.608 101.764 506.976 101.693 510.339 101.795C511.834 101.839 512.208 101.283 512.173 99.8873C512.137 98.6334 512.085 97.8165 510.453 97.8342C503.652 97.9092 496.85 97.9357 490.048 97.8386C488.351 97.8165 488.395 98.6687 488.351 99.8653C488.298 101.216 488.628 101.839 490.158 101.786C493.517 101.676 496.885 101.751 500.253 101.759L500.244 101.764ZM511.377 72.185C512.907 72.525 513.813 71.7832 514.472 70.441C515.017 69.3283 515.743 68.3083 516.336 67.2177C518.522 63.2085 519.168 64.3433 514.63 61.6234C514.182 61.354 513.637 60.9787 513.32 61.6101C511.896 64.4537 509.693 66.9395 509.389 70.3041C509.249 71.8539 509.803 72.5206 511.381 72.1806L511.377 72.185ZM489.327 66.1492C487.458 66.1668 486.267 67.3237 485.211 68.4761C484.407 69.3503 483.158 70.4807 483.651 71.6729C484.161 72.9092 485.73 72.11 486.825 72.2027C487.616 72.2689 488.676 72.5692 488.804 71.1607C488.949 69.5049 489.147 67.8579 489.327 66.1492Z" fill="#FEFEFE"/>
<path d="M67.879 74.5209C68.0812 71.9687 68.7935 70.207 69.3123 68.3879C70.7501 63.3499 75.1073 63.0496 79.1128 62.1489C79.4646 62.0694 79.8427 62.1136 80.1988 62.0429C84.5033 61.1863 84.5209 61.1863 83.0875 65.4251C82.0103 68.613 80.3791 71.5493 78.9062 74.5562C78.4709 75.4437 78.0752 75.6026 77.2662 75.0816C75.0546 73.651 72.7858 73.8541 70.3983 74.7107C69.5849 75.0021 68.2043 75.6733 67.879 74.5164V74.5209Z" fill="#FEFEFE"/>
<path d="M65.131 128.777C68.8946 128.746 69.6201 129.802 68.5913 132.967C67.0084 137.829 64.0757 141.171 58.8347 142.156C57.9729 142.319 57.7487 142.319 57.5333 141.441C56.566 137.467 57.7663 133.793 58.9622 130.115C59.1777 129.448 59.8812 129.409 60.422 129.334C62.1455 129.082 63.8823 128.919 65.1266 128.777H65.131Z" fill="#FEFEFE"/>
<path d="M35.9669 95.9355C34.1422 91.0565 31.192 87.1047 27.9867 83.069C29.0375 82.7952 29.6575 82.5789 30.2994 82.4729C32.0318 82.1903 34.151 81.2984 33.5838 84.6497C33.4387 85.5107 34.3093 85.7756 35.0304 86.0273C37.154 86.7691 39.2337 85.9478 41.331 85.9213C41.863 85.9125 42.5138 85.2811 42.9007 86.0229C43.1997 86.5925 42.7424 87.1709 42.4786 87.6566C40.8254 90.6856 38.5874 93.2597 35.9625 95.9355H35.9669Z" fill="#FEFEFE"/>
<path d="M49.1089 76.8785C49.3728 78.2472 48.6605 79.3379 48.9594 80.6846C49.1749 81.6515 47.6756 82.464 46.4313 82.4551C45.5475 82.4507 44.7033 82.5567 43.8372 82.6936C42.8391 82.8525 41.4057 83.4442 40.966 82.0666C40.5703 80.8258 40.9572 79.276 42.1004 78.521C43.9823 77.2759 45.9872 76.1278 48.0889 75.3331C49.9487 74.631 48.5989 76.5606 49.1045 76.8741L49.1089 76.8785Z" fill="#FEFEFE"/>
<path d="M52.0944 140.098C50.8897 140.456 51.1667 138.513 49.9972 139.295C49.8257 139.41 49.641 139.286 49.5707 139.017C49.3112 138.019 51.5976 133.179 52.5649 132.72C53.585 132.235 54.6006 131.74 55.7922 131.162C55.7922 133.171 54.35 134.522 54.4247 136.35C54.4555 137.153 53.1233 136.014 52.7276 136.835C52.2263 137.864 51.558 138.862 52.0944 140.098Z" fill="#FEFEFE"/>
<path d="M67.7119 58.8195C66.8018 59.0535 66.9073 57.3227 65.7465 58.113C64.832 58.7356 63.8251 59.0712 64.1197 60.5636C64.2428 61.195 64.6253 62.2017 63.4294 62.5638C62.616 62.811 61.9037 63.1598 61.785 61.8396C61.741 61.3407 61.5432 60.8462 61.3717 60.3649C60.677 58.4177 61.3409 57.486 63.4558 57.645C64.1637 57.698 64.7001 57.3712 65.3068 57.2564C66.4236 57.0533 67.7163 56.9209 67.7075 58.8151L67.7119 58.8195Z" fill="#FEFEFE"/>
<path d="M62.3302 97.6046C60.3472 99.1544 58.3203 100.656 56.3945 102.276C55.2249 103.256 54.1037 103.398 52.6088 102.47C55.5679 100.766 58.417 99.1103 61.2837 97.4854C61.6003 97.3088 62.062 96.9511 62.3566 97.5958L62.3302 97.6046Z" fill="#FEFEFE"/>
<path d="M59.2173 122.962C58.184 123.947 56.9309 123.466 55.6251 123.726C57.3574 120.962 57.5992 120.918 59.2173 122.962Z" fill="#FEFEFE"/>
<path d="M44.7209 69.1163C46.3214 68.2597 47.4118 66.2551 50.1378 66.7055C48.3835 68.3259 46.4489 68.5025 44.7209 69.1163Z" fill="#FEFEFE"/>
<path d="M48.4231 101.464C48.2428 101.883 47.8647 102.007 47.6096 101.702C47.425 101.481 47.8031 101.256 48.0405 101.115C48.168 101.23 48.2955 101.349 48.4275 101.464H48.4231Z" fill="#FEFEFE"/>
<path d="M76.6858 77.2406C76.9188 77.0949 76.9804 76.4503 77.3893 76.8697C77.6531 77.1391 77.3893 77.4923 77.0859 77.6998C76.954 77.5453 76.8221 77.3907 76.6858 77.2406Z" fill="#FEFEFE"/>
<path d="M62.3565 97.5914C62.2158 97.4854 62.0751 97.3794 61.9344 97.2735C62.0136 97.2028 62.0927 97.1322 62.1719 97.0615C62.2202 97.2426 62.273 97.4236 62.3258 97.6046L62.3565 97.5914Z" fill="#FEFEFE"/>
<path d="M116.728 185.431C116.89 185.365 117.145 185.197 117.198 185.246C117.422 185.467 117.326 185.688 117.075 185.847C116.961 185.71 116.846 185.568 116.728 185.431Z" fill="#FEFEFE"/>
<path d="M500.437 76.1632C507.688 76.1632 514.938 76.1234 522.189 76.2206C523.015 76.2338 524.747 75.1344 524.681 77.4392C524.629 79.1524 524.426 80.2298 522.149 80.1238C517.326 79.903 512.485 80.1238 507.653 80.0267C506.136 79.9958 505.775 80.5698 505.793 81.943C505.815 83.2367 505.995 83.9476 507.595 83.9078C512.058 83.7886 516.53 83.9034 520.997 83.8239C522.782 83.793 523.077 84.3052 522.131 85.7932C520.786 87.917 519.247 89.851 517.33 91.4802C515.312 93.1978 513.149 94.0853 510.361 94.0014C503.63 93.8028 496.885 93.816 490.153 94.0014C487.375 94.0809 485.246 93.2155 483.206 91.4582C481.232 89.7582 479.601 87.8287 478.238 85.6298C477.468 84.3891 477.636 83.8195 479.258 83.8416C483.725 83.899 488.192 83.8018 492.66 83.8813C494.15 83.9078 494.704 83.5104 494.695 81.9253C494.686 80.4373 494.343 79.8589 492.752 79.8942C487.775 80.009 482.793 79.8677 477.825 80.0576C475.631 80.1415 475.987 78.6491 475.771 77.4701C475.481 75.8762 476.69 76.1411 477.6 76.1411C485.216 76.1323 492.831 76.1367 500.451 76.1367V76.1676L500.437 76.1632Z" fill="#E82026"/>
<path d="M500.244 101.759C496.88 101.759 493.513 101.68 490.149 101.79C488.619 101.843 488.289 101.221 488.342 99.8695C488.39 98.6773 488.342 97.8208 490.039 97.8428C496.841 97.9356 503.643 97.9135 510.445 97.8384C512.076 97.8208 512.129 98.6376 512.164 99.8916C512.203 101.287 511.825 101.843 510.33 101.799C506.967 101.697 503.603 101.768 500.235 101.764L500.244 101.759Z" fill="#E82026"/>
<path d="M511.372 72.185C509.794 72.525 509.24 71.8583 509.381 70.3085C509.688 66.9439 511.887 64.458 513.311 61.6145C513.628 60.9787 514.173 61.354 514.622 61.6278C519.159 64.3521 518.513 63.2129 516.328 67.2221C515.734 68.3127 515.009 69.3326 514.463 70.4453C513.808 71.7876 512.898 72.5294 511.368 72.1894L511.372 72.185Z" fill="#E82026"/>
<path d="M489.327 66.1536C489.146 67.8623 488.949 69.5137 488.804 71.1651C488.68 72.5736 487.616 72.2733 486.825 72.2071C485.73 72.1144 484.16 72.9091 483.65 71.6772C483.158 70.4851 484.407 69.3592 485.211 68.4805C486.267 67.3281 487.458 66.1712 489.327 66.1536Z" fill="#E82026"/>
</g>
<defs>
<clipPath id="clip0_2201_938">
<rect width="711" height="244" fill="white" transform="translate(0.0493164 0.743652)"/>
</clipPath>
</defs>
</svg>
