<svg width="260" height="90" viewBox="0 0 260 90" fill="none" xmlns="http://www.w3.org/2000/svg">
<g clip-path="url(#clip0_2385_922)">
<path d="M201.724 26.2043C202.544 26.5844 202.715 27.2608 202.648 28.0773C202.595 28.7199 202.531 29.3915 203.405 29.8505C202.672 29.9923 202.339 30.2371 202.763 30.8426C202.886 31.0182 202.832 31.2646 202.715 31.4579C202.086 32.5112 202.294 33.5693 202.683 34.6306C202.763 34.8481 202.97 35.0993 202.771 35.291C202.616 35.4423 202.38 35.2539 202.182 35.1911C201.933 35.1106 201.644 34.9946 201.522 35.3747C201.363 35.8707 201.012 36.0431 200.522 36.1397C199.77 36.2895 199.457 36.9224 199.31 37.5924C199.174 38.2076 198.866 38.4508 198.256 38.3832C198.049 38.3606 197.83 38.4057 197.62 38.4444C197.449 38.475 197.199 38.4073 197.14 38.636C197.09 38.8325 197.279 38.9549 197.41 39.0886C197.686 39.3656 198.07 39.5379 198.232 39.9132C198.149 40.1274 197.958 40.092 197.814 40.1322C197.303 40.274 196.744 40.377 197.42 41.0374C197.563 41.1759 197.535 41.3289 197.425 41.469C197.028 41.9715 196.624 42.4707 196.225 42.9748C195.988 43.276 195.756 43.0956 195.519 42.9797C194.689 42.5722 193.936 42.5432 193.329 43.3887C193.112 43.6915 192.727 43.7092 192.4 43.8091C190.237 44.4662 188.021 44.951 185.901 45.7498C185.52 45.8931 185.047 45.9076 184.953 46.4568C184.927 46.6066 184.744 46.5615 184.628 46.6018C183.441 47.0125 182.35 47.4151 181.411 48.4635C180.414 49.578 179.193 50.7586 177.342 50.5154C176.398 50.3914 175.432 50.5508 174.499 50.8488C173.871 51.0485 173.349 50.9164 173.16 50.1401C173.019 49.5555 172.582 49.2624 171.995 49.2012C171.678 49.169 171.356 49.1641 171.038 49.1384C169.807 49.0369 169.305 48.1495 169.854 47.0608C170.525 45.7305 169.711 43.7688 168.259 43.3597C167.777 43.2245 167.804 42.8879 167.743 42.5819C167.315 40.4576 166.899 38.3284 166.5 36.1977C166.433 35.8401 166.316 35.5309 166.077 35.2652C165.188 34.2747 165.062 33.1457 165.626 31.9877C166.125 30.9602 166.092 30.126 165.206 29.3255C164.777 28.9374 164.725 28.4558 165.163 27.9099C165.818 27.0885 165.592 26.0062 165.808 25.0495C165.967 24.3457 165.939 23.621 165.879 22.893C165.765 21.5257 165.848 20.1841 166.33 18.8586C166.88 17.3512 166.482 15.776 166.425 14.2315C166.399 13.5261 166.534 12.9061 166.958 12.3472C167.733 11.3245 168.504 10.2986 169.274 9.27269C169.814 8.556 169.779 8.30153 169.071 7.75234C167.799 6.76669 167.863 6.83272 169.007 5.70857C169.823 4.90491 170.809 4.49583 171.794 4.0481C172.324 3.80813 172.883 3.66479 173.496 3.86128C173.896 3.98851 174.337 3.96274 174.766 3.91282C175.818 3.7888 175.876 3.75659 175.806 2.71941C175.775 2.28456 175.932 2.14283 176.333 2.12834C176.784 2.11223 177.239 2.08485 177.683 2.00916C178.231 1.91414 178.636 1.6178 178.628 0.999351C178.623 0.591884 178.818 0.508136 179.166 0.503305C181.419 0.480757 183.423 0.886613 184.418 3.29437C184.68 3.93053 185.275 4.2317 185.978 4.2317C186.271 4.2317 186.586 4.27036 186.852 4.17694C188.858 3.46831 190.482 4.29451 192.045 5.42189C192.846 6.00007 193.666 6.55088 194.465 7.13067C195.291 7.7314 196.204 8.06156 197.221 8.05512C197.856 8.0519 198.235 8.31603 198.531 8.89421C199.409 10.6078 200.239 12.3424 200.98 14.1188C201.115 14.4425 201.379 14.792 200.799 15.0223C200.433 15.1689 200.457 15.4861 200.75 15.7181C201.149 16.0337 201.149 16.4187 201.078 16.8728C200.944 17.7457 200.86 18.6267 200.747 19.5028C200.5 21.4 200.992 23.1024 202.044 24.6775C202.694 25.6503 202.67 25.6664 201.722 26.2059L201.724 26.2043ZM186.17 21.2696C186.023 20.9507 185.951 20.8138 185.894 20.6689C185.494 19.6558 185.526 19.6091 186.61 19.6075C189.146 19.6043 191.681 19.5882 194.217 19.6075C194.796 19.6124 195.006 19.4449 195 18.8296C194.993 18.2402 194.776 18.1258 194.245 18.1307C191.657 18.1564 189.067 18.15 186.479 18.1419C186.245 18.1419 185.786 18.2595 185.838 17.9116C185.92 17.3705 186.183 16.8471 186.429 16.3446C186.61 15.9741 187.008 16.1545 187.302 16.1529C189.65 16.1384 192 16.1497 194.348 16.14C194.58 16.14 194.885 16.2721 194.992 15.863C195.187 15.1077 194.958 14.7775 194.185 14.7759C193.677 14.7743 193.171 14.7759 192.663 14.7759C190.315 14.7759 187.965 14.7695 185.617 14.7888C185.412 14.7904 184.961 14.5923 185.025 15.0545C185.146 15.9226 184.695 16.5974 184.426 17.3463C183.876 18.8747 184.169 20.3564 184.81 21.793C185.126 22.5 185.129 23.1716 184.752 23.8738C184.437 24.4633 184.165 25.1027 184.206 25.7839C184.266 26.7776 183.609 26.5812 183.05 26.5538C182.328 26.5183 182.59 25.9772 182.605 25.5939C182.613 25.3877 182.672 25.159 182.779 24.9819C183.635 23.5662 183.538 22.157 182.899 20.6801C182.404 19.535 182.347 18.3561 183.011 17.2014C183.303 16.6941 183.418 16.1094 183.436 15.5023C183.45 14.9627 183.3 14.7372 182.72 14.755C182.212 14.7711 181.897 14.8258 181.983 15.4475C182.036 15.826 181.927 16.2093 181.748 16.5362C180.796 18.2692 180.982 19.9908 181.769 21.7044C182.081 22.3857 182.103 23.0573 181.778 23.7208C181.419 24.4504 181.16 25.1977 181.141 26.0223C181.136 26.222 181.171 26.52 180.892 26.5441C180.5 26.5779 180.056 26.7003 179.715 26.4894C179.368 26.2735 179.55 25.8468 179.592 25.5198C179.629 25.2347 179.734 24.9448 179.871 24.6904C180.523 23.4712 180.548 22.2649 179.975 20.9942C179.387 19.6929 179.288 18.3642 180.048 17.0596C180.337 16.5636 180.382 15.9935 180.394 15.4233C180.406 14.9692 180.268 14.7485 179.752 14.7614C178.365 14.7952 176.976 14.7985 175.589 14.7614C175.032 14.7469 174.934 14.9724 174.928 15.4652C174.922 15.9725 175.045 16.1851 175.589 16.161C176.494 16.1207 177.404 16.14 178.311 16.1594C178.474 16.1626 178.78 16.0192 178.766 16.4106C178.743 17.0435 178.144 17.6072 177.483 17.6072C176.148 17.6072 174.813 17.633 173.48 17.5927C172.903 17.575 172.825 17.8311 172.839 18.3094C172.852 18.7459 172.825 19.0793 173.45 19.0454C174.435 18.9907 175.424 19.0309 176.411 19.0309C177.965 19.0309 177.953 19.0309 178.33 20.5368C178.453 21.028 178.629 21.5096 178.82 21.9798C179.067 22.5902 178.886 22.827 178.237 22.9059C176.941 23.0621 175.756 23.7031 175.333 24.8917C174.8 26.3895 173.959 26.8501 172.517 26.5779C172.087 26.4974 171.917 26.7084 171.904 27.1674C171.819 30.0325 172.609 32.6126 174.904 34.3665C176.246 35.3908 176.765 36.4763 176.533 38.0546C176.453 38.6006 176.717 38.7198 177.222 38.7166C180.104 38.694 182.986 38.7133 185.869 38.6972C186.556 38.694 187.434 39.0016 187.881 38.5716C188.334 38.1368 188.034 37.2445 188.021 36.5584C188.01 35.9303 188.204 35.5422 188.736 35.1766C191.519 33.2649 192.716 30.5431 192.669 27.198C192.661 26.6762 192.464 26.5586 192.008 26.5699C191.127 26.5908 190.246 26.5634 189.365 26.5844C188.909 26.5957 188.777 26.4797 189.032 26.0497C189.524 25.2219 189.975 24.3715 190.483 23.555C190.741 23.1394 190.762 22.8962 190.277 22.6386C189.264 22.1022 188.267 21.5337 187.296 20.9249C186.828 20.6318 186.49 20.5674 186.173 21.276L186.17 21.2696Z" fill="#E82026"/>
<path d="M17.6954 37.238C19.4588 36.5551 21.0732 35.5695 22.763 34.7368C22.9119 34.6627 22.9632 34.5403 23.0112 34.3761C23.2034 33.7222 23.6055 33.4114 24.3102 33.6594C24.5648 33.7496 24.6962 33.5193 24.8531 33.3936C25.8446 32.6077 26.7223 31.7316 27.206 30.5124C27.4702 29.8456 27.8242 29.2159 28.1381 28.5701C28.2503 28.4944 28.3447 28.3639 28.2486 28.2673C28.0997 28.1143 28.0773 28.3494 27.9924 28.4026C27.616 28.6989 27.2204 28.9759 26.8744 29.3045C26.7559 29.4172 26.1072 29.5847 26.804 29.8746C26.9097 29.9181 26.7495 30.0953 26.6534 30.1822C25.8878 30.8699 24.9877 31.3547 24.0203 31.6301C23.6455 31.7364 23.2515 31.9264 22.7694 31.957C22.8767 30.3401 24.6241 30.1275 25.1607 28.8696C24.5889 28.7408 24.0459 29.0532 23.4805 28.9775C22.7518 28.8809 22.55 28.5362 22.6701 27.8453C22.8126 27.0368 22.8943 26.2187 22.9472 25.3973C22.3466 26.9772 22.3466 28.6313 22.2841 30.2853C22.236 31.5592 22.1047 32.8316 22.0118 34.1039C21.9878 34.4195 21.7572 34.4791 21.5073 34.5097C21.2462 34.5419 20.9868 34.5387 20.7577 34.7272C20.4454 34.9848 20.1267 35.0654 20.0081 34.5613C19.6061 34.6515 19.9713 34.9816 19.7359 35.0831C19.4428 34.9172 19.2922 34.1603 18.7845 34.8576C18.7124 34.9575 18.6307 34.9462 18.4818 34.6821C18.1454 34.0878 17.6265 33.6159 17.4439 32.9056C17.3606 32.5803 16.9714 32.2969 16.5806 32.7398C16.3692 32.9797 16.0601 33.1649 15.9319 33.4403C15.4002 34.5758 14.2502 35.2264 13.3116 35.4439C12.1585 35.7112 12.5092 36.5664 12.2546 37.0641C11.875 37.8033 11.3544 37.8548 10.7986 37.7985C10.001 37.7179 9.22743 37.6132 8.41699 37.2976C6.82495 36.6791 6.10581 35.3988 5.25052 34.157C5.20568 34.0926 5.20087 33.9718 5.14642 33.9444C4.02046 33.3952 4.32957 32.3307 4.2591 31.4175C4.18222 30.4319 3.97881 29.451 4.12937 28.4509C4.27992 27.4556 4.70596 26.6068 5.49878 25.9948C5.8111 25.7532 6.15706 25.4956 6.54146 26.1237C7.0652 26.9821 7.79555 27.7117 8.4234 28.5073C8.6172 28.7521 8.79979 28.6103 8.99038 28.5459C10.1964 28.1304 11.3993 27.7068 12.6085 27.2994C12.892 27.2043 13.0153 27.0513 13.0778 26.7437C13.2187 26.0415 13.5279 25.32 14.215 25.1074C14.7547 24.9399 15.1599 24.2248 15.9367 24.6742C16.2491 24.8562 16.5085 24.2603 16.7632 23.9929C17.0419 23.6998 16.6959 23.5693 16.5358 23.4486C15.0879 22.3469 14.1925 20.8427 13.4366 19.2273C13.097 18.5026 13.0105 17.7456 13.0233 16.9597C13.0297 16.6005 13.1371 16.3364 13.5263 16.4717C14.6314 16.8566 15.5972 16.4314 16.4893 15.9032C17.9132 15.0593 19.5212 14.6405 20.9563 13.8191C21.6162 13.4423 22.353 13.7789 22.9952 14.1477C23.6407 14.5181 24.2573 15.0866 24.9444 15.1962C25.8286 15.3363 26.3379 15.8581 26.8904 16.4024C27.7986 17.2931 28.0004 18.4027 27.7089 19.5929C27.411 20.8057 26.4116 20.9667 25.2712 20.9715C25.7309 21.656 26.1168 22.136 26.9737 21.7124C27.962 21.2244 29.0495 20.8057 30.0633 20.5737C31.3382 20.2822 32.6708 19.7991 34.0498 20.0165C34.4246 20.0761 34.8058 20.1486 35.0909 20.3934C36.8271 21.8863 38.5505 23.3857 39.6012 25.5004C40.3571 27.024 40.5333 28.5266 39.646 30.0534C39.5787 30.1677 39.5371 30.3368 39.4378 30.3851C38.2221 30.9827 37.7112 32.2324 36.8751 33.1778C36.2441 33.8897 35.3584 34.004 34.5608 34.3133C34.1027 34.492 33.659 34.666 33.3659 35.0638C33.0424 35.5034 32.485 35.373 32.0894 35.6548C31.8876 35.7982 31.6554 35.5195 31.6426 35.3456C31.5977 34.7497 31.2101 34.7674 30.7953 34.7868C29.4899 34.8447 28.2102 34.5516 26.9113 34.5033C26.3491 34.4824 25.9391 34.5387 25.5611 35.0718C24.6609 36.3409 23.4389 37.3089 22.1399 38.3444C23.2595 38.6408 24.291 38.673 25.3176 38.6053C28.0565 38.4266 30.7729 38.0433 33.4812 37.6165C35.4801 37.3008 37.4598 37.6004 39.4458 37.7034C39.8526 37.7244 39.803 37.9949 39.5595 38.2317C39.1175 38.6585 38.6786 39.0901 38.1244 39.3752C37.2211 39.8406 36.9504 40.6894 36.6717 41.5977C36.4699 42.2564 36.0567 42.8797 35.6243 43.4273C35.3247 43.8058 35.1133 44.2181 35.0108 44.64C34.9019 45.091 35.3824 44.6271 35.4881 44.8204C34.1139 46.1249 32.4738 46.8465 30.6031 47.0301C30.177 47.0719 30.0041 47.1476 30.1466 47.6501C30.8321 50.0804 30.4525 52.435 29.5476 54.7365C29.4803 54.9088 29.3746 55.0812 29.3586 55.2583C29.136 57.6741 27.4046 58.7693 25.4762 59.5891C24.0539 60.1946 22.5227 59.2734 21.6242 57.9399C21.0893 57.1459 20.7321 55.888 19.3755 55.9058C19.2842 55.9058 19.1304 55.8864 19.1449 55.7431C19.2121 55.0715 18.4978 54.5094 18.9126 53.767C19.0712 53.4835 19.0327 53.0889 18.887 52.7539C18.666 52.2531 18.4433 51.7538 18.2207 51.2529C18.0702 51.298 18.0317 51.4236 17.9933 51.5557C17.54 53.1115 16.7119 54.532 16.3692 56.128C16.358 56.1763 16.3179 56.2214 16.2843 56.2633C14.9934 57.8223 13.7969 59.5101 11.6812 60.0368C11.1526 60.1688 10.6481 59.8548 10.1836 59.6599C9.81043 59.5037 9.4965 59.4747 9.08488 59.5987C9.26587 58.481 8.3257 58.1734 7.73469 57.6596C7.50085 57.4551 7.18372 57.2538 6.86979 57.1137C6.17468 56.8044 5.50839 56.492 4.67713 56.6675C3.79783 56.8527 2.88008 56.7432 1.98956 56.6063C1.45941 56.5242 0.946884 56.4276 0.434355 56.6708C0.317435 56.7271 0.168481 56.7754 0.0980084 56.6128C0.0531621 56.5097 0.11883 56.4421 0.230946 56.3776C2.73593 54.9394 5.04071 53.1501 7.88204 52.3143C9.69511 51.7812 11.1302 50.6184 12.1056 48.9466C12.1601 48.8548 12.2097 48.7533 12.2866 48.6825C12.9032 48.1043 12.9657 47.576 12.3314 46.9109C11.8974 46.4551 12.0816 45.6627 12.6085 45.5532C12.9128 45.4888 13.2988 45.4324 13.6448 45.5194C14.0276 45.616 14.4712 45.55 14.6859 45.3148C15.4675 44.458 16.1674 43.5271 16.8209 42.5238C16.2939 42.8926 15.7638 43.2566 15.2416 43.6334C12.908 45.3132 10.4175 46.6435 7.54889 47.1283C7.13086 47.1992 6.70002 47.2346 6.27718 47.2233C5.85595 47.2121 5.24572 47.0736 5.27935 46.6709C5.3258 46.1298 5.16403 45.2971 6.06096 45.1441C6.69361 45.0362 6.94988 44.4967 7.40154 44.1681C7.53608 44.4291 7.52968 44.9235 7.92208 45.1087C8.34972 45.31 8.75174 45.0282 9.13453 44.8639C11.6491 43.7897 13.861 42.2001 16.1225 40.6942C16.2619 40.6024 16.5085 40.5009 16.2699 40.2771C16.0681 40.087 15.8807 39.7633 15.5331 39.9888C15.1535 40.2352 14.8108 40.5396 14.4312 40.786C13.8162 41.1854 13.3229 41.9021 12.4227 41.6042C12.3875 41.5929 12.3314 41.6621 12.2818 41.667C12.0095 41.6895 11.7228 42.316 11.5386 41.8296C11.3993 41.4624 11.2968 40.9599 11.7292 40.4558C13.1002 38.863 14.7195 37.486 15.8551 35.6806C16.1978 35.1346 16.925 34.9784 17.4615 34.7111C17.8043 34.5403 18.4305 35.1974 18.8726 35.5614C19.1385 35.7805 18.8758 35.9061 18.7156 36.0462C18.3232 36.3908 17.7835 36.5777 17.564 37.1108C17.4775 37.1623 17.3398 37.2444 17.4071 37.325C17.5 37.4361 17.6393 37.391 17.7034 37.238H17.6954ZM22.771 35.8272C22.6637 35.5936 22.4955 35.7225 22.3802 35.7869C21.3359 36.3796 20.2964 36.9835 19.2201 37.6052C19.7647 37.9434 20.1731 37.8919 20.5992 37.5343C21.3023 36.9449 22.039 36.3973 22.7582 35.832C22.7406 35.766 22.7213 35.6999 22.7037 35.6339C22.6749 35.6597 22.6461 35.6854 22.6172 35.7112L22.771 35.8272ZM24.7827 27.4121C24.9028 27.8341 25.4057 27.5893 25.7004 27.483C26.5701 27.1705 27.3966 27.0964 28.2022 27.6182C28.4969 27.8083 28.6427 27.7503 28.7996 27.4266C29.3362 26.3282 29.9304 25.2572 30.3228 24.096C30.8449 22.5515 30.8385 22.5499 29.2705 22.8623C29.1408 22.8881 29.003 22.872 28.8749 22.901C27.4158 23.2295 25.8286 23.339 25.3048 25.1767C25.1158 25.8402 24.8563 26.4828 24.7827 27.4137V27.4121ZM23.7816 47.2024C23.3284 47.2539 22.6957 47.3135 22.0679 47.4053C21.8709 47.4343 21.6146 47.4472 21.5361 47.6904C21.1005 49.032 20.6616 50.3719 21.0156 51.8214C21.0941 52.1403 21.1758 52.1403 21.4897 52.0823C23.3988 51.7232 24.4671 50.5056 25.0437 48.7308C25.4185 47.5777 25.1527 47.1927 23.7832 47.2024H23.7816ZM13.1579 35.2232C14.1141 34.2472 14.9277 33.3099 15.5315 32.2034C15.6276 32.0263 15.7942 31.8153 15.6853 31.6075C15.5427 31.3354 15.3057 31.5673 15.1135 31.5705C14.3495 31.5818 13.5919 31.8813 12.8183 31.6092C12.5541 31.5174 12.2385 31.4207 12.2914 31.1067C12.498 29.8843 11.726 30.2096 11.095 30.3127C10.8627 30.3513 10.6353 30.4302 10.2525 30.5301C11.4201 32.0021 12.4948 33.4436 13.1595 35.2232H13.1579ZM17.9452 28.2721C17.761 28.1578 18.2527 27.454 17.5752 27.71C16.8096 27.9983 16.0793 28.4187 15.3938 28.8729C14.9774 29.1483 14.8364 29.7119 14.9806 30.1661C15.1407 30.6702 15.6629 30.4528 16.0264 30.3948C16.3436 30.3449 16.6495 30.3046 16.9714 30.3078C17.4247 30.3111 17.9708 30.0131 17.8924 29.662C17.7819 29.1724 18.0413 28.7746 17.9468 28.2737L17.9452 28.2721ZM19.0327 51.3318C18.8389 50.8809 19.0824 50.5185 19.2634 50.1416C19.4075 49.8421 19.8944 50.2576 19.8816 49.9645C19.8544 49.2977 20.3797 48.8049 20.3797 48.0721C19.9457 48.2815 19.5741 48.4618 19.2041 48.6406C18.8518 48.8097 18.0189 50.5733 18.1134 50.9372C18.139 51.0339 18.2063 51.0806 18.2688 51.0387C18.6932 50.7536 18.5939 51.4623 19.0327 51.3318ZM24.7218 21.6866C24.725 20.9957 24.2541 21.044 23.8473 21.1181C23.6247 21.1584 23.4309 21.2792 23.173 21.2598C22.4026 21.2019 22.1608 21.5401 22.4138 22.2519C22.4763 22.4275 22.5484 22.6079 22.5644 22.7898C22.6076 23.2714 22.8671 23.1442 23.1634 23.054C23.5991 22.9219 23.4613 22.5547 23.4149 22.3244C23.3076 21.78 23.6743 21.6576 24.0075 21.4306C24.4287 21.1423 24.3903 21.7736 24.7234 21.6882L24.7218 21.6866ZM21.6274 45.0813C21.038 44.3356 20.9499 44.3501 20.3189 45.3599C20.7946 45.2649 21.2526 45.4405 21.6274 45.0813ZM16.3484 25.4408C16.9762 25.2169 17.6809 25.1509 18.3216 24.5614C17.3286 24.3988 16.933 25.1283 16.3484 25.4408Z" fill="#080909"/>
<path d="M42.577 67.8656C41.6064 68.3601 39.6892 67.6997 39.228 66.6754C39.0534 66.2873 39.2904 65.7768 39.614 65.7945C40.0912 65.8219 40.277 65.5255 40.5349 65.3145C42.1045 64.0277 43.6437 62.7006 45.2245 61.4267C45.6858 61.0547 45.87 60.6536 45.8876 60.0706C45.9501 58.0107 46.3313 55.9589 46.0174 53.8926C45.9069 53.1662 45.9309 52.3964 45.2822 51.844C45.1637 51.7441 44.9987 51.4961 45.2694 51.1692C45.4952 50.897 45.6314 50.8857 45.878 50.9566C46.1567 51.0355 46.3905 51.1515 46.6356 50.81C46.8294 50.5395 47.1994 50.6715 47.4556 50.7907C48.4727 51.2642 49.5987 51.7184 50.2009 52.6589C50.8896 53.7348 51.6936 54.8605 51.6007 56.2617C51.5687 56.74 51.8025 56.8109 52.1405 56.8447C52.8836 56.9204 53.5996 57.0863 54.2915 57.4358C54.0849 57.5018 53.8943 57.5646 53.7021 57.6258C54.2723 57.774 54.4292 58.2572 54.6407 58.6759C54.8184 59.0302 54.7768 59.4006 54.346 59.4651C53.393 59.6068 52.8324 60.3927 52.0412 60.7825C50.0599 61.7585 49.7476 63.5526 49.762 65.4804C49.7732 66.9734 49.9014 66.8059 51.2291 67.5081C52.6114 68.2377 54.1137 68.5855 55.528 69.1959C56.7356 69.7161 58.1707 69.6743 59.5241 69.4327C60.9143 69.1847 62.1604 69.4681 63.1919 70.4087C62.8427 71.4072 61.9586 71.7454 61.1498 72.2382C60.7189 72.5008 60.3666 73.1224 60.3377 73.7199C60.2993 74.5172 59.963 75.221 59.8028 75.965C59.7067 76.4112 59.8941 77.0248 60.0286 77.5466C60.2176 78.2713 60.1856 78.8173 59.3703 79.1781C58.9315 79.3729 58.6096 79.8352 58.2316 80.1718C56.8301 81.4151 55.1852 81.399 53.6861 80.2845C52.7139 79.563 51.8073 78.8092 51.0434 77.8639C50.6253 77.3485 49.8533 77.2792 49.3632 76.569C49.6259 78.9542 49.5218 81.1896 50.2249 83.3751C50.6429 84.6748 50.7535 86.1275 49.9222 87.4192C49.8277 87.5674 49.8309 87.8041 49.5698 87.7799C49.0141 87.73 48.4551 87.6318 48.4278 88.4934C48.423 88.6706 48.0771 88.8059 47.9185 88.5723C47.0344 87.2694 45.5753 86.5479 44.6592 85.2659C44.0633 84.4316 43.8968 83.2656 42.8253 82.7841C42.79 82.7679 42.7564 82.7003 42.758 82.6584C42.7852 81.7324 42.7035 81.6212 41.8803 81.2234C41.5231 81.0511 41.2076 80.7918 40.8568 80.6034C40.4612 80.3924 40.3731 79.7885 40.4981 79.7192C40.8344 79.534 40.6903 78.682 41.4014 79.0492C41.584 79.1442 41.8435 79.1362 41.9604 78.893C42.175 78.4501 41.7105 78.3132 41.5423 78.012C42.3864 77.2519 43.168 78.1103 44.0714 78.1135C44.2956 76.2662 44.523 74.4028 44.7489 72.5362C44.4077 72.4863 44.3292 72.7262 44.2091 72.8825C43.1152 74.303 42.0805 75.7637 41.1804 77.3179C40.1841 79.0396 38.9365 80.5567 37.3797 81.8C37.1538 81.9804 37.1026 82.1092 37.1875 82.3911C37.3332 82.8742 37.4373 83.3767 37.4982 83.8776C37.5574 84.364 37.5078 84.8278 36.8111 84.7489C36.7118 84.7376 36.518 84.7908 36.518 84.7924C36.6269 85.5848 35.9494 85.8699 35.6194 86.3868C35.2078 87.0311 34.8282 86.9247 34.4871 86.6799C32.8534 85.4994 31.1829 84.3898 30.5854 82.2107C30.2955 81.1526 29.152 80.6243 28.2775 79.9865C27.9924 79.7788 27.9683 79.8062 28.0324 79.3681C28.05 79.2538 27.9764 79.2376 27.9123 79.2119C27.2764 78.9655 27.2508 78.4968 27.5888 78.0346C27.8562 77.6706 27.4686 77.4918 27.4542 77.1939C28.4601 77.123 29.3105 77.4805 30.1498 77.9202C31.0259 78.3808 31.0739 78.3567 31.0836 77.3275C31.0948 76.0681 31.0499 74.8087 31.0243 73.5492C31.0147 73.0983 31.0916 72.6522 30.9891 72.1915C30.8866 71.7309 30.7152 71.7986 30.4797 72.045C30.2219 72.3156 29.9592 72.591 29.7542 72.9018C28.5225 74.7732 26.7367 75.8507 24.6561 76.4836C24.2045 76.6205 23.8233 77.0634 23.1474 76.883C23.9898 76.1277 24.7714 75.4754 25.4986 74.7668C27.0362 73.2658 28.3287 71.565 29.3826 69.692C30.0489 68.5082 29.9912 68.3295 29.019 67.4662C27.2924 65.9314 26.1745 63.952 24.9188 61.8261C26.9993 62.211 28.6234 61.2415 30.3324 60.6021C30.6783 60.4733 31.0051 60.288 31.351 60.1576C31.745 60.0094 31.8636 59.7566 31.9388 59.3298C32.4706 56.3052 33.1657 53.3257 34.3894 50.4879C34.5848 50.0337 34.7738 50.1062 35.046 50.2834C35.8373 50.7971 36.2024 51.6443 36.6525 52.4222C36.7918 52.6638 36.5932 52.8377 36.5132 53.0004C35.6947 54.6608 35.7684 56.5468 35.1726 58.262C35.0733 58.5487 35.2623 58.6952 35.5201 58.5438C36.9344 57.7176 38.5601 57.5469 40.0704 57.0251C40.6743 56.8173 41.2813 56.7223 41.9956 56.558C41.7762 57.1555 41.3662 57.4503 40.9706 57.7096C39.9919 58.349 39.4009 59.3781 38.52 60.1093C38.4415 60.1737 38.3695 60.28 38.3519 60.3782C38.0539 61.9775 37.2003 63.5365 37.9803 65.2115C38.0379 65.3355 38.0379 65.416 37.9707 65.4804C37.0577 66.3566 36.8687 67.8544 35.4609 68.3021C36.7486 69.4037 36.9168 69.4311 37.4101 68.6322C37.6471 68.7144 37.8489 68.9672 37.8121 69.1235C37.6183 69.9529 38.251 70.2412 38.7154 70.6454C39.6812 71.4845 39.9695 72.6634 39.4858 73.8069C39.1623 74.5719 38.0187 74.7491 37.5446 74.0775C37.2179 73.6153 36.699 73.3672 36.3946 72.8728C36.0022 72.2382 35.2959 71.7986 35.3199 70.9144C35.3263 70.6809 35.0861 70.5117 34.8042 70.3475C34.6376 71.4877 34.8811 72.5732 34.9964 73.6491C35.1518 75.1082 35.187 76.5915 35.5986 78.0169C35.73 78.471 35.8389 78.9381 36.0311 79.3665C36.1784 79.695 36.4699 79.8158 36.8111 79.5501C37.2659 79.1942 37.551 78.7029 37.7961 78.2053C38.8708 76.0214 40.1089 73.9325 41.3469 71.8404C42.0453 70.6615 42.4665 69.365 42.6987 68.0106C42.79 67.9526 42.8253 67.8721 42.7436 67.7915C42.726 67.7738 42.6315 67.8334 42.5722 67.8592L42.577 67.8656Z" fill="#080909"/>
<path d="M63.0734 34.8479C64.9938 30.1613 66.8741 25.5712 68.7544 20.9812C69.6658 18.757 70.5819 16.5345 71.4756 14.3023C71.6406 13.89 71.8264 13.6919 72.3165 13.6951C76.2662 13.7193 80.2159 13.7096 84.1655 13.7064C84.4971 13.7064 84.7854 13.6645 84.7694 14.1815C84.7533 14.6469 84.4971 14.6099 84.1944 14.6179C83.7411 14.6292 83.2878 14.6421 82.8362 14.684C81.281 14.8305 80.4337 15.6906 80.3023 17.2576C80.2687 17.6586 80.2703 18.0613 80.2703 18.4639C80.2703 26.0834 80.3232 33.7044 80.2495 41.3239C80.2223 44.086 81.4988 44.9831 83.9429 44.9363C84.0502 44.9347 84.1575 44.9428 84.2632 44.9347C84.5692 44.9106 84.7598 44.9669 84.7662 45.3567C84.7726 45.7609 84.6124 45.8527 84.2472 45.8527C79.0162 45.8431 73.7868 45.8399 68.5558 45.8479C68.1762 45.8479 68.0449 45.7481 68.0513 45.3535C68.0577 44.9686 68.2339 44.9202 68.5446 44.9331C69.2381 44.9621 69.9284 44.9557 70.6059 44.7656C71.7127 44.4532 72.3694 43.6962 72.4543 42.527C72.5199 41.6186 72.5552 40.7055 72.5568 39.7939C72.5648 32.416 72.5616 25.0365 72.5632 17.6586C72.5632 17.4783 72.5632 17.2979 72.5632 17.1175C72.5055 17.0982 72.4478 17.0789 72.3902 17.0595C72.0346 17.8825 71.6694 18.7007 71.3235 19.5285C67.787 27.9983 64.2538 36.4681 60.7173 44.9396C60.6453 45.1119 60.5508 45.2762 60.4899 45.4517C60.4146 45.6691 60.3201 45.8254 60.0559 45.8431C59.7355 45.864 59.6715 45.6498 59.5738 45.4195C58.7553 43.5046 57.9193 41.5961 57.1008 39.6812C53.9648 32.3451 50.8335 25.0075 47.6991 17.6715C47.6286 17.5073 47.5406 17.3494 47.3243 17.1964C47.3243 17.3881 47.3243 17.5797 47.3243 17.7698C47.3275 25.4698 47.3532 33.1714 47.3211 40.8713C47.3099 43.4885 48.7626 44.7882 51.3269 44.9428C51.5847 44.9589 51.9803 44.735 51.9883 45.3293C51.9963 45.8737 51.7064 45.8511 51.3349 45.8511C48.1059 45.8447 44.877 45.8431 41.6481 45.8495C41.2941 45.8495 41.0475 45.856 41.0442 45.3631C41.041 44.8832 41.3101 44.946 41.6048 44.9347C44.2203 44.8333 45.5305 43.4659 45.5305 40.8214C45.5337 33.3356 45.5353 25.8498 45.5241 18.3625C45.5241 17.7231 45.46 17.0756 45.3479 16.4459C45.1925 15.5682 44.1483 14.808 42.9951 14.6856C42.5194 14.6357 42.0357 14.6115 41.5584 14.6276C41.1692 14.6405 41.0539 14.4972 41.0458 14.1203C41.0394 13.7273 41.2332 13.6983 41.5392 13.6983C45.5945 13.7064 49.6515 13.7177 53.7069 13.6951C54.1618 13.6919 54.2178 13.9592 54.338 14.2459C56.4217 19.1661 58.5055 24.0847 60.5908 29.0049C61.4045 30.923 62.2197 32.8396 63.0718 34.8479H63.0734Z" fill="#080909"/>
<path d="M145.674 56.5597C149.221 56.5806 152.771 56.4663 156.309 56.8593C159.283 57.1894 161.916 58.1525 163.699 60.7407C166.337 64.5721 165.688 71.2607 159.004 73.2707C158.852 73.3158 158.702 73.3721 158.545 73.3979C158.157 73.4639 158.066 73.5751 158.333 73.9471C161.181 77.9267 164.011 81.9209 166.848 85.907C167.573 86.9248 168.491 87.6624 169.78 87.7736C170.216 87.8106 170.091 88.1005 170.125 88.3485C170.173 88.6948 169.987 88.7496 169.705 88.7496C166.583 88.7447 163.46 88.7399 160.338 88.7544C159.952 88.756 159.856 88.487 159.693 88.2551C156.491 83.707 153.288 79.1588 150.085 74.6106C149.798 74.2048 148.198 73.8633 147.785 74.1226C147.58 74.2499 147.649 74.456 147.65 74.6283C147.673 78.0362 147.596 81.4425 147.697 84.8504C147.761 87.0231 148.866 87.5626 150.58 87.7704C150.895 87.809 151.222 87.8122 151.539 87.78C151.973 87.7349 152.061 87.9089 152.071 88.3212C152.084 88.8011 151.819 88.7463 151.518 88.7463C146.422 88.7447 141.324 88.7431 136.227 88.7496C135.912 88.7496 135.679 88.7737 135.684 88.3115C135.689 87.8783 135.825 87.7655 136.234 87.7752C136.789 87.7881 137.339 87.7848 137.898 87.6479C139.315 87.3049 139.962 86.6156 140.041 85.1758C140.233 81.6374 140.11 78.0942 140.119 74.5543C140.132 69.8869 140.129 65.218 140.054 60.5506C140.02 58.4473 139.291 57.7692 137.212 57.5486C136.948 57.5212 136.679 57.5276 136.413 57.5083C136.083 57.4842 135.662 57.6806 135.681 57.0139C135.702 56.3278 136.158 56.571 136.463 56.5694C139.531 56.5549 142.6 56.5597 145.669 56.5597H145.674ZM147.653 65.3355H147.65C147.65 67.4824 147.65 69.6276 147.652 71.7745C147.652 72.0467 147.543 72.3607 148.049 72.3478C149.726 72.3092 151.406 72.4058 153.064 72.0161C155.029 71.5522 156.318 70.3459 156.917 68.4455C157.569 66.3792 157.512 64.2839 156.876 62.2175C156.259 60.2124 154.838 59.0883 152.848 58.6244C151.352 58.2749 149.828 58.3506 148.312 58.3168C147.793 58.3055 147.631 58.4392 147.639 58.9803C147.671 61.0998 147.652 63.2193 147.652 65.3371L147.653 65.3355Z" fill="#080909"/>
<path d="M116.074 56.1167C119.495 56.0426 122.778 56.6031 125.695 58.5003C129.625 61.0578 132.071 64.6477 132.83 69.3344C133.757 75.0647 132.465 80.1766 128.528 84.5009C126.001 87.2758 122.82 88.7897 119.109 89.2374C115.921 89.6224 112.776 89.5145 109.736 88.4145C104.529 86.5285 101.26 82.7663 99.8425 77.4676C98.4907 72.4154 98.9504 67.5048 101.971 63.0984C105.082 58.5599 109.436 56.2069 114.954 56.1167C115.327 56.1103 115.702 56.1167 116.074 56.1167ZM124.609 71.7389C124.442 70.0865 124.495 68.8529 124.335 67.6256C124.043 65.3821 123.547 63.216 122.395 61.2414C119.796 56.7883 113.788 56.3841 110.644 60.4732C108.636 63.0855 108.121 66.1938 107.841 69.3634C107.652 71.5022 107.652 73.6426 107.822 75.7878C108.019 78.2793 108.44 80.7113 109.465 83.0047C111.499 87.556 115.393 88.4386 119.006 87.1099C121.239 86.2886 122.386 84.3462 123.211 82.2235C124.578 78.7061 124.606 75.0132 124.61 71.7405L124.609 71.7389Z" fill="#080909"/>
<path d="M184.416 88.7462C180.039 88.7462 175.661 88.7462 171.284 88.7462C170.921 88.7462 170.531 88.8509 170.591 88.2164C170.624 87.8443 170.751 87.7799 171.07 87.7815C171.811 87.7831 172.559 87.8572 173.285 87.6011C174.246 87.2597 174.872 86.6413 174.966 85.5831C175.026 84.9164 175.093 84.2464 175.095 83.578C175.104 76.1712 175.051 68.7643 175.125 61.3574C175.154 58.3956 174.058 57.4212 171.26 57.5066C170.933 57.5163 170.581 57.6274 170.587 57.0347C170.594 56.4437 170.946 56.5628 171.275 56.5628C179.736 56.5628 188.196 56.5677 196.658 56.5483C197.228 56.5483 197.367 56.7078 197.361 57.265C197.333 60.0013 197.353 62.7393 197.346 65.4772C197.346 65.7381 197.49 66.0876 197.004 66.1359C196.571 66.1778 196.419 66.0183 196.324 65.5915C196.139 64.7605 195.905 63.9327 195.612 63.1338C194.566 60.2783 192.394 58.9497 189.487 58.6098C187.49 58.3763 185.488 58.518 183.489 58.4536C182.957 58.4359 182.768 58.5406 182.773 59.1333C182.803 63.0243 182.8 66.9154 182.778 70.8064C182.774 71.3492 182.877 71.5312 183.465 71.5215C186.67 71.4684 188.422 69.8917 189.192 66.2744C189.325 65.6463 189.457 65.0117 189.505 64.3739C189.538 63.9311 189.767 63.9488 190.081 63.9278C190.507 63.8988 190.472 64.163 190.472 64.4384C190.472 69.6984 190.472 74.9584 190.472 80.2184C190.472 80.4777 190.538 80.766 190.104 80.7644C189.735 80.7628 189.553 80.7064 189.497 80.2587C189.298 78.6321 188.88 77.0747 188.025 75.6397C186.905 73.7618 185.14 73.3479 183.17 73.2915C182.821 73.2818 182.782 73.4461 182.789 73.7247C182.867 77.5063 182.627 81.2911 182.939 85.0678C183.007 85.8811 183.588 86.6558 184.405 86.7588C187.786 87.1888 191.129 87.1276 194.172 85.3255C196.392 84.0113 197.628 81.8982 198.459 79.5146C198.53 79.3133 198.613 79.1104 198.647 78.901C198.719 78.4646 199.018 78.4195 199.358 78.4629C199.811 78.5209 199.609 78.8849 199.582 79.0943C199.262 81.4537 198.919 83.8099 198.583 86.1661C198.503 86.7218 198.334 87.2823 198.36 87.8331C198.4 88.6641 198.029 88.7704 197.313 88.7656C193.015 88.7333 188.718 88.7495 184.421 88.7511L184.416 88.7462Z" fill="#080909"/>
<path d="M82.4502 56.5596C86.6401 56.5596 90.83 56.5724 95.0199 56.5451C95.651 56.5402 95.8816 56.6546 95.8688 57.3536C95.8239 59.9288 95.8592 62.5057 95.8432 65.0809C95.8416 65.366 96.0658 65.8008 95.446 65.8443C94.8966 65.8846 94.8902 65.6108 94.8309 65.1856C94.2639 61.0884 91.9223 58.9319 87.8509 58.5953C85.7688 58.423 83.6914 58.5083 81.6109 58.4536C81.1768 58.4423 81.0855 58.5824 81.0872 58.9931C81.1 63.0178 81.1 67.0442 81.0855 71.0689C81.0839 71.5054 81.1752 71.6777 81.6493 71.668C82.6135 71.6471 83.5729 71.5778 84.5019 71.333C86.6449 70.7677 87.8125 69.2152 88.4596 67.1988C88.671 66.5433 88.8247 65.8604 88.9192 65.1792C88.9689 64.8265 89.073 64.7443 89.3997 64.7314C89.8146 64.7137 89.8033 64.9569 89.8033 65.242C89.7985 66.7978 89.7985 68.3535 89.7985 69.9109C89.7985 73.3462 89.8049 76.7799 89.7937 80.2152C89.7937 80.4535 89.9827 80.8336 89.4654 80.8674C89.041 80.8948 88.9625 80.7257 88.9112 80.3263C88.8087 79.5355 88.6261 78.7512 88.4323 77.9765C87.5114 74.3029 84.2216 73.2834 81.4363 73.4235C80.9094 73.4493 81.1 73.8165 81.0984 74.0581C81.0872 76.8749 81.0888 79.6933 81.092 82.5118C81.092 83.4507 81.2121 84.3945 81.1929 85.3206C81.1656 86.6927 82.5559 87.7026 83.858 87.7782C84.2312 87.8008 84.6044 87.796 84.9792 87.7879C85.3411 87.7799 85.6406 87.7428 85.6423 88.2985C85.6423 88.8396 85.3331 88.7478 85.0256 88.7478C79.8475 88.7478 74.6709 88.7478 69.4928 88.751C69.1629 88.751 68.8906 88.7993 68.8922 88.284C68.8954 87.8056 69.1052 87.7944 69.4656 87.7847C70.0998 87.7686 70.7325 87.8572 71.3683 87.6591C72.6705 87.2516 73.2423 86.6235 73.3544 85.2755C73.4072 84.6345 73.4024 83.9887 73.4024 83.3444C73.4056 76.0729 73.4056 68.7997 73.404 61.5281C73.404 61.1254 73.3976 60.7228 73.3752 60.3218C73.2807 58.6001 72.4142 57.6918 70.7036 57.5291C70.3593 57.4969 70.0069 57.542 69.6642 57.5033C69.3615 57.4695 68.9018 57.7514 68.8922 57.0572C68.8842 56.3937 69.3038 56.5676 69.6353 56.5676C73.9053 56.5612 78.1753 56.5644 82.4453 56.5644L82.4502 56.5596Z" fill="#080909"/>
<path d="M204.267 83.3526C204.267 81.5553 204.259 79.7563 204.277 77.9589C204.278 77.7222 204.068 77.3518 204.592 77.3002C205.055 77.2551 205.238 77.421 205.334 77.8671C205.825 80.1461 206.666 82.2832 208.196 84.0629C210.281 86.4883 212.852 87.9523 216.15 87.7784C219.262 87.6141 221.637 85.2241 221.248 82.4185C221.004 80.6614 219.874 79.4938 218.522 78.5307C216.888 77.3663 215.041 76.5755 213.275 75.643C211.06 74.4737 208.822 73.327 207.039 71.4958C204.53 68.9158 203.679 65.8477 204.735 62.4156C205.817 58.8966 208.366 56.8238 211.912 56.0814C214.484 55.5435 217.002 55.8849 219.393 57.0268C219.946 57.2909 220.492 57.5727 221.062 57.7885C222.553 58.3555 223.181 58.0285 223.601 56.5082C223.615 56.4566 223.626 56.4035 223.631 56.3503C223.658 56.0492 223.756 55.8656 224.12 55.8656C224.566 55.8656 224.477 56.1732 224.483 56.4164C224.538 58.4279 224.581 60.4395 224.632 62.4494C224.661 63.5752 224.712 64.701 224.719 65.8267C224.719 66.1038 224.965 66.5467 224.328 66.5756C223.831 66.5982 223.711 66.392 223.618 65.9572C223.018 63.1194 221.607 60.7954 219.193 59.1511C217.122 57.7386 214.875 57.2007 212.443 58.0028C209.604 58.9401 208.095 62.4494 210.981 65.0682C212.652 66.5837 214.697 67.4502 216.659 68.46C218.89 69.6067 221.132 70.7357 223.09 72.3333C228.149 76.4595 227.914 83.6747 222.548 87.4128C218.989 89.8914 215.104 89.9687 211.108 88.6594C210.353 88.4113 209.636 88.0522 208.883 87.7977C207.288 87.2582 206.341 87.6028 205.401 89.0121C205.302 89.1619 205.273 89.4018 205.05 89.4115C204.645 89.4292 204.221 89.5629 204.243 88.8269C204.299 87.0037 204.261 85.179 204.261 83.3542L204.267 83.3526Z" fill="#080909"/>
<path d="M106.858 40.4397C106.858 38.6423 106.853 36.845 106.864 35.0476C106.864 34.7996 106.704 34.413 107.234 34.4549C107.559 34.4807 107.761 34.4533 107.868 34.9236C108.589 38.0722 109.891 40.8971 112.548 42.9086C114.664 44.5095 116.99 45.2568 119.658 44.7833C122.131 44.3452 124.003 42.2097 123.84 39.8003C123.717 37.9723 122.578 36.7258 121.172 35.7208C119.255 34.3502 117.07 33.4596 115.013 32.3403C113.114 31.3079 111.217 30.2675 109.677 28.7005C107.162 26.1461 106.228 23.1087 107.257 19.6541C108.258 16.2864 110.61 14.1766 113.99 13.3263C116.567 12.6772 119.114 12.9075 121.564 13.9898C122.368 14.3441 123.163 14.7258 123.989 15.0189C125.099 15.4135 125.7 15.0834 126.071 13.9689C126.146 13.7434 126.223 13.5131 126.259 13.2779C126.316 12.8979 126.593 13.0219 126.813 13.0042C127.135 12.9768 127.051 13.2248 127.056 13.3875C127.136 16.6858 127.208 19.9842 127.288 23.2826C127.295 23.5177 127.304 23.7432 126.982 23.6933C126.715 23.6514 126.35 23.893 126.247 23.3503C125.989 21.9781 125.563 20.6445 124.79 19.4753C122.775 16.4298 120.116 14.5229 116.279 14.8369C113.822 15.0383 111.941 16.9629 112.002 19.187C112.034 20.3659 112.616 21.263 113.415 22.0602C114.727 23.3696 116.38 24.1362 117.989 24.9672C120.568 26.2959 123.155 27.5876 125.509 29.3318C130.878 33.3098 130.687 41.5622 124.069 45.1956C120.618 47.0912 116.974 47.0091 113.33 45.6594C112.608 45.3921 111.903 45.0651 111.169 44.8381C109.848 44.4274 108.837 44.8236 108.067 45.9864C108.008 46.075 107.932 46.1603 107.9 46.2586C107.756 46.7047 107.388 46.5742 107.096 46.5549C106.714 46.5307 106.867 46.1941 106.866 45.9944C106.853 44.1439 106.858 42.2918 106.859 40.4413L106.858 40.4397Z" fill="#080909"/>
<path d="M244.71 56.5564C249.246 56.5564 253.782 56.5693 258.318 56.5403C258.925 56.5371 259.074 56.6982 259.066 57.2973C259.031 59.7646 259.055 62.2336 259.044 64.7025C259.044 64.9264 259.213 65.2646 258.758 65.3178C258.372 65.3629 258.163 65.2211 258.073 64.8427C257.847 63.9069 257.557 62.9889 257.15 62.116C256.071 59.8033 254.309 58.5036 251.716 58.4698C250.835 58.4585 249.954 58.4875 249.075 58.4553C248.639 58.4392 248.485 58.539 248.487 59.0173C248.5 67.2005 248.492 75.3836 248.497 83.5652C248.497 84.0725 248.58 84.5798 248.607 85.0887C248.697 86.746 249.693 87.7268 251.359 87.7816C251.759 87.7945 252.161 87.8122 252.558 87.7816C252.977 87.7477 253.105 87.8911 253.111 88.3163C253.117 88.7817 252.868 88.7495 252.557 88.7495C247.327 88.7447 242.097 88.7447 236.867 88.7495C236.528 88.7495 236.262 88.7817 236.268 88.276C236.273 87.7945 236.496 87.7767 236.859 87.7832C237.602 87.7993 238.347 87.8363 239.071 87.5803C240.11 87.2114 240.732 86.4094 240.756 85.2917C240.945 76.5464 240.791 67.8012 240.838 59.056C240.838 58.7774 240.927 58.444 240.437 58.4601C238.952 58.5068 237.465 58.378 235.989 58.7452C234.035 59.2299 232.953 60.615 232.141 62.3093C231.759 63.1049 231.508 63.9553 231.383 64.8266C231.321 65.2598 231.125 65.3258 230.754 65.3258C230.259 65.3258 230.371 64.9828 230.371 64.7106C230.366 62.2416 230.388 59.7743 230.355 57.3053C230.347 56.7078 230.497 56.5371 231.106 56.5419C235.642 56.5693 240.178 56.5564 244.714 56.5564H244.71Z" fill="#080909"/>
<path d="M147.331 13.7047C151.842 13.7047 156.35 13.7176 160.861 13.6902C161.482 13.687 161.661 13.8368 161.652 14.4762C161.613 16.9178 161.641 19.3593 161.631 21.8009C161.631 22.0473 161.801 22.421 161.277 22.421C160.905 22.421 160.742 22.3469 160.632 21.933C160.393 21.0327 160.106 20.1324 159.723 19.2869C158.703 17.0369 157.028 15.6776 154.475 15.6229C153.515 15.6019 152.553 15.6181 151.595 15.5762C151.164 15.5585 151.067 15.7099 151.068 16.1221C151.081 24.6532 151.078 33.1858 151.084 41.7168C151.086 44.2116 152.53 44.9089 154.451 44.9395C154.718 44.9444 154.986 44.9605 155.25 44.9379C155.606 44.9057 155.631 45.1151 155.638 45.384C155.644 45.6546 155.626 45.8769 155.269 45.8446C155.164 45.835 155.056 45.8446 154.949 45.8446C149.825 45.8446 144.703 45.8446 139.58 45.8398C139.269 45.8398 138.852 45.9977 138.886 45.384C138.905 45.0378 138.996 44.9266 139.344 44.9282C139.98 44.9299 140.613 44.9733 141.248 44.8026C142.637 44.429 143.329 43.643 143.363 42.1758C143.403 40.3527 143.393 38.528 143.395 36.7032C143.398 29.9422 143.382 23.1811 143.417 16.4201C143.42 15.6776 143.202 15.5456 142.535 15.5713C141.231 15.6197 139.914 15.5263 138.633 15.8387C136.379 16.3879 135.21 18.0596 134.438 20.0905C134.212 20.6864 134.062 21.3194 133.958 21.9491C133.884 22.3968 133.647 22.4226 133.293 22.4258C132.827 22.429 132.96 22.0972 132.96 21.8637C132.952 19.3142 132.976 16.7664 132.936 14.2169C132.926 13.5662 133.303 13.7096 133.647 13.7096C138.21 13.7063 142.773 13.708 147.336 13.708L147.331 13.7047Z" fill="#080909"/>
<path d="M94.9351 13.7065C97.4961 13.7065 100.057 13.7033 102.618 13.7113C102.895 13.7113 103.28 13.5438 103.283 14.1124C103.288 14.6503 102.983 14.6213 102.61 14.6245C101.84 14.6342 101.069 14.6181 100.334 14.9466C99.4469 15.3412 98.9792 15.9983 98.8655 16.9662C98.6909 18.4367 98.715 19.9103 98.7166 21.3856C98.7246 27.9566 98.7278 34.5276 98.747 41.0986C98.7486 41.7122 98.8095 42.3306 98.8976 42.9394C99.0481 43.983 100.222 44.8382 101.588 44.9284C101.987 44.9542 102.389 44.951 102.788 44.9365C103.087 44.9268 103.289 44.9413 103.275 45.3472C103.262 45.724 103.155 45.8513 102.766 45.8513C97.5105 45.84 92.2555 45.8432 87.0005 45.8513C86.6673 45.8513 86.5232 45.7643 86.5296 45.4003C86.5344 45.0637 86.6273 44.9268 86.9829 44.9284C87.6443 44.9316 88.3058 44.9767 88.9657 44.7931C90.2903 44.4243 90.9502 43.6642 91.0014 42.2807C91.0366 41.316 91.0238 40.3497 91.0222 39.3849C91.0222 32.1424 91.027 24.9014 91.011 17.6588C91.0062 15.4926 89.8963 14.5553 87.718 14.7646C87.3961 14.7952 87.0501 14.6873 86.7298 14.5907C86.4015 14.4925 86.5472 14.1848 86.5504 13.9706C86.5568 13.5648 86.89 13.7162 87.0918 13.7146C89.7057 13.7049 92.3196 13.7081 94.9351 13.7081V13.7049V13.7065Z" fill="#080909"/>
<path d="M186.17 21.2695C186.487 20.5609 186.825 20.6253 187.293 20.9184C188.263 21.5272 189.261 22.0941 190.273 22.6321C190.759 22.8897 190.738 23.1329 190.48 23.5485C189.972 24.365 189.521 25.217 189.029 26.0432C188.774 26.4732 188.906 26.5892 189.362 26.5779C190.243 26.5569 191.124 26.5843 192.005 26.5634C192.461 26.5521 192.658 26.6697 192.666 27.1915C192.714 30.5366 191.518 33.2584 188.733 35.1701C188.199 35.5357 188.007 35.9222 188.018 36.552C188.031 37.238 188.331 38.1303 187.877 38.5651C187.431 38.9951 186.553 38.6875 185.866 38.6907C182.983 38.7069 180.101 38.6875 177.218 38.7101C176.714 38.7133 176.45 38.5941 176.53 38.0481C176.762 36.4698 176.243 35.3843 174.901 34.36C172.604 32.6077 171.816 30.026 171.901 27.1609C171.914 26.7035 172.083 26.4909 172.514 26.5714C173.957 26.842 174.797 26.3814 175.33 24.8852C175.754 23.6966 176.94 23.0556 178.234 22.8994C178.882 22.8205 179.065 22.5837 178.817 21.9734C178.626 21.5031 178.45 21.0215 178.327 20.5303C177.952 19.0261 177.963 19.0228 176.408 19.0245C175.42 19.0245 174.43 18.9842 173.446 19.0389C172.822 19.0744 172.849 18.7394 172.836 18.3029C172.822 17.823 172.902 17.5685 173.477 17.5862C174.809 17.6281 176.145 17.6023 177.479 17.6007C178.141 17.6007 178.74 17.037 178.762 16.4041C178.777 16.0144 178.471 16.1577 178.308 16.1529C177.401 16.1335 176.491 16.1142 175.586 16.1545C175.042 16.1786 174.917 15.966 174.925 15.4587C174.931 14.9659 175.029 14.7404 175.586 14.7549C176.973 14.792 178.362 14.7887 179.749 14.7549C180.266 14.742 180.402 14.9627 180.391 15.4168C180.378 15.9854 180.334 16.5571 180.045 17.0532C179.285 18.3577 179.384 19.6864 179.972 20.9877C180.545 22.2584 180.519 23.4647 179.868 24.6839C179.731 24.9384 179.626 25.2283 179.589 25.5133C179.547 25.8403 179.365 26.267 179.712 26.4829C180.053 26.6938 180.497 26.5714 180.889 26.5376C181.168 26.5135 181.133 26.2155 181.138 26.0158C181.157 25.1912 181.416 24.4439 181.775 23.7143C182.102 23.0508 182.079 22.3808 181.765 21.6979C180.979 19.9827 180.793 18.2611 181.745 16.5297C181.924 16.2044 182.033 15.8195 181.98 15.441C181.894 14.8209 182.209 14.7646 182.717 14.7485C183.298 14.7308 183.447 14.9546 183.433 15.4958C183.417 16.1029 183.301 16.6876 183.008 17.1949C182.344 18.3496 182.401 19.5286 182.896 20.6736C183.534 22.1505 183.63 23.5597 182.776 24.9754C182.67 25.1509 182.61 25.3796 182.602 25.5874C182.587 25.9707 182.324 26.5135 183.047 26.5473C183.606 26.5747 184.264 26.7711 184.203 25.7774C184.162 25.0962 184.435 24.4552 184.749 23.8673C185.124 23.1668 185.121 22.4936 184.807 21.7865C184.166 20.3499 183.873 18.8682 184.423 17.3398C184.692 16.5909 185.143 15.9161 185.022 15.048C184.958 14.5858 185.409 14.7839 185.614 14.7823C187.962 14.763 190.312 14.7694 192.66 14.7694C193.168 14.7694 193.674 14.7694 194.181 14.7694C194.955 14.7726 195.184 15.1028 194.989 15.8565C194.883 16.2672 194.579 16.1335 194.345 16.1335C191.997 16.1432 189.647 16.1335 187.299 16.1464C187.003 16.148 186.607 15.9677 186.426 16.3381C186.181 16.8406 185.919 17.364 185.835 17.9051C185.782 18.253 186.242 18.1354 186.476 18.1354C189.064 18.1451 191.654 18.1499 194.242 18.1242C194.771 18.1193 194.99 18.2321 194.997 18.8231C195.003 19.4384 194.793 19.6059 194.214 19.601C191.678 19.5817 189.143 19.5978 186.607 19.601C185.525 19.601 185.493 19.6493 185.891 20.6624C185.947 20.8057 186.019 20.9442 186.167 21.2631L186.17 21.2695ZM182.353 28.0097V27.9984C179.579 27.9984 176.805 27.9984 174.029 28C173.698 28 173.257 27.9034 173.363 28.4848C173.442 28.9148 173.312 29.4591 174.111 29.4285C175.923 29.3609 177.737 29.4108 179.549 29.3689C180.127 29.3561 180.252 29.567 180.257 30.1098C180.262 30.688 180.058 30.8329 179.515 30.8233C177.888 30.7943 176.261 30.8297 174.633 30.8088C174.042 30.8007 173.981 31.0085 174.262 31.461C174.758 32.2615 175.352 32.9669 176.072 33.5869C176.816 34.2279 177.592 34.5436 178.602 34.5146C181.054 34.447 183.511 34.4405 185.963 34.5146C186.979 34.5452 187.767 34.2215 188.502 33.595C189.202 32.9991 189.763 32.2953 190.251 31.5206C190.595 30.9763 190.486 30.7911 189.838 30.8023C188.211 30.8313 186.583 30.7894 184.956 30.8329C184.373 30.849 184.307 30.5897 184.299 30.1162C184.291 29.6154 184.424 29.406 184.977 29.4173C186.737 29.4511 188.5 29.3706 190.257 29.4527C191.087 29.4913 191.162 29.0984 191.18 28.4735C191.206 27.6328 190.575 28.0338 190.272 28.029C187.631 27.9935 184.99 28.008 182.348 28.008L182.353 28.0097ZM182.283 37.3476C183.508 37.3476 184.735 37.3218 185.96 37.3588C186.505 37.3749 186.641 37.172 186.628 36.6631C186.615 36.2057 186.596 35.9077 186.002 35.9142C183.524 35.9416 181.046 35.9512 178.569 35.9158C177.95 35.9077 177.966 36.2186 177.95 36.655C177.931 37.1479 178.051 37.3749 178.609 37.3556C179.832 37.3153 181.059 37.3427 182.286 37.3459L182.283 37.3476ZM186.338 26.5586C186.896 26.6826 187.225 26.412 187.466 25.9224C187.664 25.5165 187.929 25.1445 188.145 24.7467C188.941 23.2843 189.176 23.6982 187.523 22.7061C187.36 22.6079 187.161 22.471 187.046 22.7013C186.527 23.7385 185.725 24.6452 185.614 25.8725C185.563 26.4378 185.765 26.681 186.34 26.5569L186.338 26.5586ZM178.306 24.3569C177.625 24.3634 177.191 24.7854 176.807 25.2057C176.514 25.5246 176.059 25.9369 176.238 26.3717C176.424 26.8227 176.996 26.5312 177.395 26.565C177.683 26.5892 178.069 26.6987 178.115 26.1849C178.168 25.581 178.24 24.9802 178.306 24.3569Z" fill="#FEFEFE"/>
<path d="M24.7827 27.4104C24.8563 26.4795 25.1158 25.8369 25.3048 25.1734C25.8285 23.3358 27.4158 23.2263 28.8749 22.8977C29.003 22.8687 29.1407 22.8848 29.2705 22.8591C30.8385 22.5466 30.8449 22.5466 30.3228 24.0927C29.9304 25.2555 29.3362 26.3265 28.7996 27.4233C28.641 27.747 28.4969 27.805 28.2022 27.615C27.3965 27.0932 26.5701 27.1672 25.7004 27.4797C25.4041 27.586 24.9012 27.8308 24.7827 27.4088V27.4104Z" fill="#FEFEFE"/>
<path d="M23.7816 47.2009C25.1527 47.1896 25.4169 47.5746 25.0421 48.7293C24.4656 50.5025 23.3972 51.7217 21.4881 52.0809C21.1742 52.1404 21.0925 52.1404 21.014 51.8199C20.6616 50.3705 21.0989 49.0305 21.5345 47.6889C21.613 47.4457 21.8693 47.4312 22.0663 47.4039C22.6941 47.3121 23.3268 47.2525 23.78 47.2009H23.7816Z" fill="#FEFEFE"/>
<path d="M13.1579 35.2217C12.4932 33.4421 11.4185 32.0006 10.2509 30.5286C10.6337 30.4288 10.8595 30.3498 11.0934 30.3112C11.7244 30.2081 12.4964 29.8828 12.2898 31.1052C12.2369 31.4192 12.5541 31.5159 12.8167 31.6077C13.5903 31.8782 14.3479 31.5787 15.1119 31.569C15.3057 31.5658 15.5427 31.3355 15.6837 31.6061C15.7926 31.8138 15.626 32.0248 15.5299 32.202C14.9277 33.3068 14.1125 34.2457 13.1563 35.2217H13.1579Z" fill="#FEFEFE"/>
<path d="M17.9452 28.2705C18.0413 28.7698 17.7818 29.1676 17.8908 29.6588C17.9692 30.0115 17.4231 30.3078 16.9698 30.3046C16.6479 30.303 16.3404 30.3416 16.0248 30.3916C15.6613 30.4496 15.1391 30.6654 14.979 30.1629C14.8348 29.7103 14.9757 29.145 15.3922 28.8696C16.0777 28.4154 16.808 27.9967 17.5736 27.7068C18.2511 27.4507 17.7594 28.1545 17.9436 28.2689L17.9452 28.2705Z" fill="#FEFEFE"/>
<path d="M19.0327 51.3303C18.5939 51.4607 18.6948 50.7521 18.2687 51.0372C18.2063 51.079 18.139 51.034 18.1134 50.9357C18.0189 50.5717 18.8517 48.8066 19.2041 48.6391C19.5757 48.4619 19.9457 48.2815 20.3797 48.0706C20.3797 48.8034 19.8544 49.2962 19.8816 49.9629C19.8928 50.2561 19.4075 49.8405 19.2634 50.1401C19.0808 50.5154 18.8373 50.8793 19.0327 51.3303Z" fill="#FEFEFE"/>
<path d="M24.7218 21.6834C24.3903 21.7688 24.4287 21.1375 24.0059 21.4258C23.6727 21.6528 23.3059 21.7752 23.4133 22.3196C23.4581 22.5499 23.5974 22.9171 23.1618 23.0492C22.8655 23.1394 22.606 23.2666 22.5628 22.785C22.5468 22.6031 22.4747 22.4227 22.4122 22.2471C22.1592 21.5369 22.401 21.1971 23.1714 21.255C23.4293 21.2744 23.6247 21.1552 23.8457 21.1133C24.2525 21.0392 24.7234 20.9909 24.7202 21.6818L24.7218 21.6834Z" fill="#FEFEFE"/>
<path d="M22.7614 35.8305C22.039 36.3958 21.3007 36.9433 20.5991 37.5344C20.1731 37.8919 19.7647 37.9435 19.2201 37.6053C20.298 36.9836 21.3359 36.3797 22.3802 35.787C22.4955 35.7226 22.6637 35.5921 22.771 35.8272L22.7614 35.8305Z" fill="#FEFEFE"/>
<path d="M21.6274 45.0797C21.251 45.4388 20.7945 45.2633 20.3188 45.3583C20.9499 44.3501 21.038 44.334 21.6274 45.0797Z" fill="#FEFEFE"/>
<path d="M16.3468 25.4392C16.9298 25.1268 17.327 24.3956 18.32 24.5599C17.6809 25.1509 16.9762 25.2154 16.3468 25.4392Z" fill="#FEFEFE"/>
<path d="M17.6953 37.2381C17.6297 37.3911 17.4919 37.4362 17.399 37.325C17.3318 37.2445 17.4695 37.1624 17.556 37.1108C17.6025 37.1527 17.6489 37.1962 17.6969 37.2381H17.6953Z" fill="#FEFEFE"/>
<path d="M27.9908 28.4026C28.0757 28.3494 28.0981 28.1143 28.247 28.2673C28.3431 28.3655 28.247 28.4944 28.1365 28.5701C28.0885 28.5137 28.0404 28.4573 27.9908 28.4026Z" fill="#FEFEFE"/>
<path d="M22.771 35.8256C22.7197 35.7869 22.6685 35.7483 22.6172 35.7096C22.646 35.6839 22.6749 35.6581 22.7037 35.6323C22.7213 35.6984 22.7405 35.7644 22.7598 35.8304L22.771 35.8256Z" fill="#FEFEFE"/>
<path d="M42.577 67.8657C42.6363 67.8416 42.7292 67.7804 42.7484 67.7981C42.8301 67.8786 42.7949 67.9591 42.7036 68.0171C42.6619 67.9672 42.6203 67.9157 42.577 67.8657Z" fill="#FEFEFE"/>
<path d="M182.353 28.0097C184.994 28.0097 187.635 27.9952 190.277 28.0306C190.578 28.0355 191.209 27.6344 191.185 28.4751C191.165 29.1 191.092 29.493 190.262 29.4543C188.505 29.3738 186.742 29.4543 184.982 29.4189C184.429 29.4076 184.298 29.617 184.304 30.1179C184.312 30.5898 184.378 30.8491 184.961 30.8346C186.586 30.7911 188.215 30.833 189.843 30.804C190.493 30.7927 190.6 30.9795 190.256 31.5223C189.766 32.2969 189.205 33.0024 188.507 33.5966C187.772 34.2231 186.984 34.5469 185.968 34.5163C183.516 34.4438 181.059 34.4486 178.607 34.5163C177.595 34.5453 176.819 34.2296 176.076 33.5886C175.357 32.9685 174.763 32.2647 174.266 31.4627C173.986 31.0101 174.047 30.8024 174.638 30.8104C176.265 30.8313 177.893 30.7959 179.52 30.8249C180.063 30.8346 180.265 30.6896 180.261 30.1114C180.258 29.5687 180.133 29.3577 179.554 29.3706C177.74 29.4125 175.926 29.3609 174.116 29.4302C173.317 29.4608 173.446 28.9164 173.368 28.4864C173.262 27.905 173.703 28.0016 174.034 28.0016C176.808 27.9984 179.582 28 182.358 28V28.0113L182.353 28.0097Z" fill="#E82026"/>
<path d="M182.283 37.3458C181.057 37.3458 179.831 37.3168 178.605 37.3571C178.048 37.3764 177.928 37.1493 177.947 36.6565C177.965 36.2216 177.947 35.9092 178.565 35.9172C181.043 35.9511 183.521 35.943 185.999 35.9156C186.593 35.9092 186.612 36.2071 186.625 36.6645C186.639 37.1735 186.501 37.3764 185.957 37.3603C184.732 37.3232 183.506 37.349 182.28 37.3474L182.283 37.3458Z" fill="#E82026"/>
<path d="M186.337 26.5586C185.762 26.6826 185.56 26.4394 185.611 25.8741C185.723 24.6469 186.524 23.7401 187.043 22.7029C187.158 22.471 187.357 22.6079 187.52 22.7078C189.173 23.7015 188.938 23.286 188.142 24.7483C187.925 25.1461 187.661 25.5182 187.462 25.924C187.224 26.4136 186.892 26.6842 186.335 26.5602L186.337 26.5586Z" fill="#E82026"/>
<path d="M178.306 24.3586C178.24 24.9819 178.168 25.5843 178.115 26.1866C178.07 26.7004 177.683 26.5909 177.395 26.5667C176.996 26.5329 176.424 26.8228 176.238 26.3734C176.059 25.9386 176.514 25.5279 176.807 25.2074C177.191 24.787 177.625 24.3651 178.306 24.3586Z" fill="#E82026"/>
</g>
<defs>
<clipPath id="clip0_2385_922">
<rect width="259" height="89" fill="white" transform="translate(0.0739746 0.5)"/>
</clipPath>
</defs>
</svg>
